<?xml version="1.0" encoding="utf-8"?>
<!-- Generator: Adobe Illustrator 27.5.0, SVG Export Plug-In . SVG Version: 6.00 Build 0)  -->
<svg version="1.1" id="Слой_1" xmlns="http://www.w3.org/2000/svg" xmlns:xlink="http://www.w3.org/1999/xlink" x="0px" y="0px"
	 viewBox="0 0 2864.327 2000" style="enable-background:new 0 0 2864.327 2000;" xml:space="preserve">
<g>
	<rect x="-0.001" y="0.001" style="fill:#FAFAFA;" width="2864.313" height="2000"/>
	<defs>
		<filter id="Adobe_OpacityMaskFilter" filterUnits="userSpaceOnUse" x="68.762" y="659.229" width="2726.787" height="1264.93">
			<feFlood  style="flood-color:white;flood-opacity:1" result="back"/>
			<feBlend  in="SourceGraphic" in2="back" mode="normal"/>
		</filter>
	</defs>
	<mask maskUnits="userSpaceOnUse" x="68.762" y="659.229" width="2726.787" height="1264.93" id="SVGID_1_">
		<g style="filter:url(#Adobe_OpacityMaskFilter);">
			<defs>
				
					<filter id="Adobe_OpacityMaskFilter_00000060744529365855890920000008075470178490490277_" filterUnits="userSpaceOnUse" x="68.762" y="659.229" width="2726.787" height="1264.93">
					<feFlood  style="flood-color:white;flood-opacity:1" result="back"/>
					<feBlend  in="SourceGraphic" in2="back" mode="normal"/>
				</filter>
			</defs>
			<mask maskUnits="userSpaceOnUse" x="68.762" y="659.229" width="2726.787" height="1264.93" id="SVGID_1_">
				<g style="filter:url(#Adobe_OpacityMaskFilter_00000060744529365855890920000008075470178490490277_);">
				</g>
			</mask>
			
				<linearGradient id="SVGID_00000035519175408438614600000018248547098069771657_" gradientUnits="userSpaceOnUse" x1="1432.1555" y1="763.6472" x2="1432.1555" y2="1143.0742">
				<stop  offset="0" style="stop-color:#FFFFFF"/>
				<stop  offset="1" style="stop-color:#000000"/>
			</linearGradient>
			<polygon style="mask:url(#SVGID_1_);fill:url(#SVGID_00000035519175408438614600000018248547098069771657_);" points="
				2795.549,833.882 2795.549,1924.158 68.762,1924.158 68.762,1087.805 68.762,1087.805 68.762,870.331 156.964,870.331 
				156.964,981.114 269.306,981.114 313.749,1032.835 358.846,1032.835 358.846,764.822 462.596,764.822 462.596,833.882 
				550.65,833.882 550.65,967.192 668.937,967.192 668.937,799.921 762.283,799.921 762.283,870.289 810.824,870.289 
				852.838,821.394 900.654,821.394 900.654,659.229 1034.311,659.229 1034.311,899.904 1170.941,899.904 1170.941,957.911 
				1223.904,957.911 1223.904,870.331 1425.786,870.331 1425.786,967.192 1503.001,967.192 1503.001,833.882 1620.78,833.882 
				1620.78,1032.835 1627.668,1032.835 1627.668,764.822 1731.455,764.822 1731.455,833.882 1819.473,833.882 1819.473,967.192 
				1937.723,967.192 1937.723,799.921 2031.068,799.921 2031.068,870.289 2079.681,870.289 2121.696,821.394 2169.476,821.394 
				2169.476,659.229 2303.097,659.229 2303.097,899.904 2439.799,899.904 2439.799,957.911 2492.762,957.911 2492.762,870.331 
				2599.05,870.331 2599.05,967.192 2771.786,967.192 2771.786,833.882 			"/>
		</g>
	</mask>
	
		<linearGradient id="SVGID_00000010289674648244858610000007880895554411642533_" gradientUnits="userSpaceOnUse" x1="1432.1555" y1="763.6472" x2="1432.1555" y2="1143.0742">
		<stop  offset="0" style="stop-color:#EDEDED"/>
		<stop  offset="1" style="stop-color:#FFFFFF"/>
	</linearGradient>
	<polygon style="fill:url(#SVGID_00000010289674648244858610000007880895554411642533_);" points="2795.549,833.882 
		2795.549,1924.158 68.762,1924.158 68.762,1087.805 68.762,1087.805 68.762,870.331 156.964,870.331 156.964,981.114 
		269.306,981.114 313.749,1032.835 358.846,1032.835 358.846,764.822 462.596,764.822 462.596,833.882 550.65,833.882 
		550.65,967.192 668.937,967.192 668.937,799.921 762.283,799.921 762.283,870.289 810.824,870.289 852.838,821.394 
		900.654,821.394 900.654,659.229 1034.311,659.229 1034.311,899.904 1170.941,899.904 1170.941,957.911 1223.904,957.911 
		1223.904,870.331 1425.786,870.331 1425.786,967.192 1503.001,967.192 1503.001,833.882 1620.78,833.882 1620.78,1032.835 
		1627.668,1032.835 1627.668,764.822 1731.455,764.822 1731.455,833.882 1819.473,833.882 1819.473,967.192 1937.723,967.192 
		1937.723,799.921 2031.068,799.921 2031.068,870.289 2079.681,870.289 2121.696,821.394 2169.476,821.394 2169.476,659.229 
		2303.097,659.229 2303.097,899.904 2439.799,899.904 2439.799,957.911 2492.762,957.911 2492.762,870.331 2599.05,870.331 
		2599.05,967.192 2771.786,967.192 2771.786,833.882 	"/>
	<defs>
		
			<filter id="Adobe_OpacityMaskFilter_00000111172015038122451280000014557081441379583915_" filterUnits="userSpaceOnUse" x="68.762" y="946.454" width="2726.787" height="592.872">
			<feFlood  style="flood-color:white;flood-opacity:1" result="back"/>
			<feBlend  in="SourceGraphic" in2="back" mode="normal"/>
		</filter>
	</defs>
	
		<mask maskUnits="userSpaceOnUse" x="68.762" y="946.454" width="2726.787" height="592.872" id="SVGID_00000117655678657067361500000006007064499221534892_">
		<g style="filter:url(#Adobe_OpacityMaskFilter_00000111172015038122451280000014557081441379583915_);">
			<defs>
				
					<filter id="Adobe_OpacityMaskFilter_00000108301342972939388120000009425444616910108559_" filterUnits="userSpaceOnUse" x="68.762" y="946.454" width="2726.787" height="592.872">
					<feFlood  style="flood-color:white;flood-opacity:1" result="back"/>
					<feBlend  in="SourceGraphic" in2="back" mode="normal"/>
				</filter>
			</defs>
			
				<mask maskUnits="userSpaceOnUse" x="68.762" y="946.454" width="2726.787" height="592.872" id="SVGID_00000117655678657067361500000006007064499221534892_">
				<g style="filter:url(#Adobe_OpacityMaskFilter_00000108301342972939388120000009425444616910108559_);">
				</g>
			</mask>
			
				<linearGradient id="SVGID_00000101076542938910096110000012073931799246728367_" gradientUnits="userSpaceOnUse" x1="1432.1555" y1="926.313" x2="1432.1555" y2="1243.6461">
				<stop  offset="0" style="stop-color:#FFFFFF"/>
				<stop  offset="1" style="stop-color:#000000"/>
			</linearGradient>
			
				<polygon style="mask:url(#SVGID_00000117655678657067361500000006007064499221534892_);fill:url(#SVGID_00000101076542938910096110000012073931799246728367_);" points="
				68.762,1539.326 68.762,994.104 171.46,994.104 171.46,1093.718 289.464,1093.718 325.478,1129.73 717.033,1129.73 
				777.951,1068.814 900.935,1068.814 900.935,966.519 1008.473,966.519 1008.473,1104.445 1206.521,1104.445 1282.838,1028.128 
				1527.73,1028.128 1527.73,1156.738 1636.539,1156.738 1689.504,1103.772 1823.505,1103.772 1861.436,1141.704 2027.328,1141.704 
				2027.328,999.161 2145.331,999.161 2145.331,1046.21 2238.814,1046.21 2238.814,946.454 2324.635,946.454 2324.635,1097.216 
				2565.239,1097.216 2587.739,1119.716 2795.549,1119.716 2795.549,1539.326 			"/>
		</g>
	</mask>
	
		<linearGradient id="SVGID_00000168085516763422562400000006687327009504270986_" gradientUnits="userSpaceOnUse" x1="1432.1555" y1="926.313" x2="1432.1555" y2="1243.6461">
		<stop  offset="0" style="stop-color:#D4D4D4"/>
		<stop  offset="1" style="stop-color:#FFFFFF"/>
	</linearGradient>
	<polygon style="fill:url(#SVGID_00000168085516763422562400000006687327009504270986_);" points="68.762,1539.326 68.762,994.104 
		171.46,994.104 171.46,1093.718 289.464,1093.718 325.478,1129.73 717.033,1129.73 777.951,1068.814 900.935,1068.814 
		900.935,966.519 1008.473,966.519 1008.473,1104.445 1206.521,1104.445 1282.838,1028.128 1527.73,1028.128 1527.73,1156.738 
		1636.539,1156.738 1689.504,1103.772 1823.505,1103.772 1861.436,1141.704 2027.328,1141.704 2027.328,999.161 2145.331,999.161 
		2145.331,1046.21 2238.814,1046.21 2238.814,946.454 2324.635,946.454 2324.635,1097.216 2565.239,1097.216 2587.739,1119.716 
		2795.549,1119.716 2795.549,1539.326 	"/>
	<rect x="0.007" y="1601.625" style="fill:#FFFFFF;" width="2864.319" height="398.36"/>
	
		<linearGradient id="SVGID_00000019648354193856507220000005616449535110333841_" gradientUnits="userSpaceOnUse" x1="219.1079" y1="1701.5713" x2="2645.2031" y2="1701.5713">
		<stop  offset="0" style="stop-color:#FF9F55"/>
		<stop  offset="1" style="stop-color:#FFD255"/>
	</linearGradient>
	
		<ellipse style="fill:url(#SVGID_00000019648354193856507220000005616449535110333841_);" cx="1432.155" cy="1701.571" rx="1213.047" ry="67.529"/>
	<g>
		<path style="fill:#202338;" d="M2039.241,1647.448c0,0,5.109,9.531,8.446,13.314c3.338,3.782,16.119,10.544,16.188,21.779
			c0.075,12.183-21.545,8.802-30.001,8.356s-9.096-6.954-12.656-13.852c-3.561-6.898-7.148-5.73-7.816-11.293
			c-0.667-5.563,3.448-18.306,3.448-18.306H2039.241z"/>
		<g>
			<path style="fill:#202338;" d="M1910.525,1646.339c0,0-10.42,11.633-20.998,14.07s-17.978,5.546-18.057,12.222
				c-0.08,6.675,30.441,11.074,42.547,4.345c18.066-10.045,19.902-7.017,21.905-12.037c2.004-5.021-2.405-18.445-2.275-20.042
				C1933.809,1642.923,1910.525,1646.339,1910.525,1646.339z"/>
		</g>
		<g>
			<path style="fill:#81807E;" d="M1911.696,1640.772c0,0-1.376,5.45-1.171,5.566c0.203,0.114,23.836,2.931,23.122-1.442
				c-0.579-3.547-1.407-7.402-1.407-7.402L1911.696,1640.772z"/>
		</g>
		<g>
			<path style="fill:#81807E;" d="M2017.144,1643.77c0,0-0.989,5.2-0.798,5.324c0.191,0.125,23.965,4.371,23.83,0.054
				c-0.106-3.429-2.193-7.425-2.193-7.425L2017.144,1643.77z"/>
		</g>
		<g>
			<path style="fill:#292C47;" d="M1933.185,1314.529c0,0-8.597,83.466-13.066,112.039c-5.226,33.409-6.997,61.013-8.454,78.304
				c-1.833,21.749-2.188,128.734-3.471,135.093c-1.283,6.36,28.469,1.758,28.469,1.758s14.636-139.789,20.096-162.951
				c5.085-21.567,23.953-114.422,28.592-108.532s10.392,108.358,13.827,125.368c3.435,17.01,13.884,150.178,13.884,150.178
				s23.679,4.715,29.978-0.616c0,0,2.867-114.764,0.678-146.654c-0.834-12.153,14.24-145.722-5.089-199.493
				C2028.412,1270.604,1933.185,1314.529,1933.185,1314.529z"/>
		</g>
		<g>
			<path style="fill:#DBD8E3;" d="M2010.331,1296.026c0,0-5.735-8.669-11.803-9.783c-6.076-1.114,83.651-44.488,83.411-59.984
				c-0.184-12.567-32.311-33.419-32.311-33.419s0,0.018-0.009,0.055c-0.01,0.009-0.01,0.027-0.01,0.037
				c0,0.018-0.009,0.037-0.009,0.055c-0.682,2.486-9.962,36.92-10.284,53.466c-0.341,17.171,1.024,76.241,1.024,76.241
				l-22.998,6.158l-73.457,0.688l-16.768-6.846c0,0,1.833-18.991,2.515-32.332c0.423-8.48,2.071-23.663,1.647-38.449
				c0,0,0.267-15.588-1.279-22.3c-0.166-29.628-1.961-58.972-1.961-58.972c-0.995-13.434-1.686-25.991-2.081-37.712
				c3.241-1.712,7.136-3.72,10.257-5.202c9.648-4.594,23.091-10.781,31.718-14.74c5.055-2.32,9.999-4.015,9.999-4.015
				s34.48-3.306,37.279-3.13c0.884,0.055,5.193,1.556,10.847,3.71c12.227,4.641,35.797,14.087,39.554,16.784
				c5.505,3.941,41.547,99.289,42.071,105.845C2108.633,1243.993,2010.331,1296.026,2010.331,1296.026z"/>
		</g>
		<path style="fill:#1D2033;" d="M1929.333,1316.424c0,0,50.461,4.296,94.654,0v14.501c0,0-65.813,6.285-96.868-2.766
			L1929.333,1316.424z"/>
		<g>
			<path style="fill:#323657;" d="M1925.154,1132.712c0.387,11.914,0.965,24.694,1.979,38.376c0,0,0.954,33.413,2.878,65.107
				c0.653,4.539,0.985,9.18,0.617,13.931c-0.479,6.196-1.151,12.963-1.962,20.025c-0.009,0.092-0.019,0.185-0.027,0.267
				c-0.193,1.676-0.396,3.361-0.598,5.064c0,0.027-0.01,0.045-0.01,0.073c-4.291,35.31-11.555,75.82-15.349,88.075
				c-0.801,2.56,1.961,4.926,3.932,6.749l13.802,8.7c0,0,5.69-52.379,7.577-70.158c1.823-17.162,7.559-40.17,10.073-62.59v-0.009
				c3.186-28.44,7.57-56.308,9.937-72.862c6.16-43.098,14.367-62.383,14.367-62.383
				C1968.448,1112.25,1925.154,1132.712,1925.154,1132.712z"/>
		</g>
		<g>
			<path style="fill:#323657;" d="M2071.643,1221.883c5.984,13.119-54.921,36.509-53.549,39.745
				c3.294,7.767,16.733,23.586,16.733,23.586s80.188-39.662,79.293-48.657c-0.651-6.548-38.221-105.534-43.724-109.479
				c-3.178-2.281-26.73-10.629-38.287-15.184c-2.112-0.835-9.321-3.545-11.214-4.263c-2.452,2.729-19.352,21.374-25.317,91.828
				c-1.006,11.872,2.17,37.019,4.291,57.543c2.263,21.896,4.769,38.985,6.605,57.296c3.619,36.076,6.15,64.782,6.15,64.782
				l35.904-15.985c5.81-2.907,15.857-10.492,13.673-16.61c-8.301-23.248-20.755-67.309-20.767-87.708c0,0,5.87-56.293,9.043-67.273
				C2050.479,1191.504,2064.948,1207.208,2071.643,1221.883z"/>
		</g>
		<g>
			<path style="fill:#EEA987;" d="M2012.029,1109.508c0,0,0.236-11.837,4.798-35.784c1.221-6.41-37.216,16.868-37.216,16.868
				s0.119,2.244,0.195,5.276c0.041,1.603,0.067,3.42,0.058,5.242c-0.006,0.644-0.011,1.282-0.026,1.916
				c-0.036,1.694-0.113,3.315-0.257,4.695c-0.145,1.421-0.983,3.929-1.283,4.618
				C1976.713,1115.996,1999.085,1118.771,2012.029,1109.508z"/>
		</g>
		<path style="fill:#E64646;" d="M1988.038,1121.91l-6.372,8.561c0,0,3.733,4.999,10.362,1.309L1988.038,1121.91z"/>
		<path style="fill:#E64646;" d="M1983.371,1130.818c0,0-24.164,93.035-19.184,165.454l8.13,14.327l7.609-15.009
			c0,0,2.085-129.538,8.711-165.001L1983.371,1130.818z"/>
		<path style="fill:#EEA987;" d="M1981.216,1113.931l6.822,7.979c0,0,10.948-2.12,14.163-7.84
			C2005.416,1108.352,1981.216,1113.931,1981.216,1113.931z"/>
		<path style="fill:#C4C1CC;" d="M1979.651,1106.945c0,0,0.792,6.084,8.387,14.965l-8.29,11.138l-4.486-23.103L1979.651,1106.945z"
			/>
		<path style="fill:#C4C1CC;" d="M2012.762,1100.177c0,0-13.654,17.357-24.724,21.733l5.149,12.734l23.525-28.435L2012.762,1100.177
			z"/>
		<g>
			<path style="fill:#EEA886;" d="M1784.692,1228.874c0,0-25.313,2.954-26.735,4.575c-1.423,1.619-1.085,2.993,1.299,2.816
				c2.385-0.177,24.589-2.141,24.589-2.141s-29.018,8.571-30.493,9.623c-0.864,0.617-0.366,3.304,0.928,3.328
				c1.293,0.023,30.657-6.793,30.657-6.793s-27.076,8.053-28.021,9.319c-0.827,1.108,0.243,3.502,2.302,3.046
				s27.713-6.48,27.713-6.48s-19.251,7.126-19.383,8.712c-0.08,0.971,0.242,3.305,5.142,1.307
				c4.898-1.998,17.037-5.464,17.037-5.464L1784.692,1228.874z"/>
		</g>
		<g>
			<g>
				<path style="fill:#EEA886;" d="M1814.626,1230.068c0,0-8.429,0.439-11.005-3.824c-2.19-3.625-7.541-6.909-9.188-7.924
					c-2.201-1.356-7.575-7.931-9.128-5.29c-1.554,2.64,8.363,11.228,10.11,13.418c1.748,2.191-10.4,1.389-12.614,2.982
					c-2.216,1.593-1.011,21.697,7.323,21.288c8.333-0.41,16.582-6.367,18.082-6.148c1.5,0.221,6.093-0.057,6.093-0.057
					L1814.626,1230.068z"/>
			</g>
		</g>
		<g>
			<path style="fill:#323657;" d="M1811.11,1249.943c0,0,62.097-8.694,75.879-12.085c6.371-1.567,14.763-10.362,22.736-20.702
				c2.629-3.404,5.207-6.979,7.659-10.515c0.008-0.007,0.008-0.015,0.008-0.015c9.783-14.126,17.45-27.666,17.45-27.666
				s28.918-33.889,5.713-48.996c0,0-9.947-0.215-15.401,2.747c-5.609,3.046-17.573,28.016-19.603,32.438
				c-2.028,4.416-24.004,45.488-25.476,46.41c-1.473,0.924-23.406,5.688-33.182,7.728c-14.159,2.954-40.764,8.478-40.764,8.478
				L1811.11,1249.943z"/>
		</g>
		
			<rect x="1966.541" y="1317.195" transform="matrix(-1 -1.224647e-16 1.224647e-16 -1 3956.6816 2652.293)" style="fill:#3A4066;" width="23.6" height="17.902"/>
		<path style="fill:#EFAA88;" d="M2005.963,1297.097c0,0,2.936-0.118,4.193-0.796c0,0,2.195-1.409,3.816-2.316
			c0.517-0.285,0.972-0.524,1.281-0.646c1.297-0.514,4.294-1.256,7.06-3.365c2.763-2.104,11.771-10.531,11.771-10.531l-5.822-8.95
			l-2.688-8.863c0,0-21.002,2.089-23.803,3.753c-0.273,0.165-0.537,0.337-0.772,0.518c-2.235,1.64-3.21,3.799-4.285,4.793
			c-0.393,0.367-4.051,4.283-3.846,5.871c0.28,2.205,1.371,3.619,2.738,4.287c0,0,0.741,4.294,2.96,6.211
			c0,0,0.557,3.982,3.994,5.583C2002.561,1292.644,2003.578,1296.62,2005.963,1297.097z"/>
		<path style="fill:#323657;" d="M2034.827,1285.214c0,0-11.676-9.585-18.002-23.586l35.842-19.626l13.301,27.082L2034.827,1285.214
			z"/>
		<g>
			<path style="fill:#EEA886;" d="M1959.372,1031.664c0,0-8.444,15.654-4.259,18.09c3.457,2.011-4.053,17.375-5.035,19.885
				c-0.981,2.51,6.265,4.334,7.803,5.949c1.539,1.615,6.103,21.494,12.071,22.094c5.967,0.6,32.859-8.753,40.182-16.366
				s13.331-42.003,8.443-56.509C2013.689,1010.301,1974.275,1004.316,1959.372,1031.664z"/>
		</g>
		<g>
			<path style="fill:#16202E;" d="M1957.687,1035.056c0,0-8.62-16.907,7.037-29.449c15.657-12.542,44.527,9.471,47.78,10.31
				c3.254,0.84,21.717,2.107,12.395,34.523c-8.005,27.836-9.123,29.006-9.123,29.006s-5.974-16.125-9.359-18.582
				c-5.287-3.839-16.878-2.917-16.878-2.917s5.522-14.663-3.108-16.739C1977.798,1039.13,1966.419,1031.814,1957.687,1035.056z"/>
		</g>
		<g>
			<path style="fill:#EEA886;" d="M1998.733,1049.55c0.761-2.012,3.223-10.656,10.64-5.579c7.418,5.076-4.621,21.369-5.914,21.579
				S1992.327,1066.476,1998.733,1049.55z"/>
		</g>
		<path style="fill:#A77860;" d="M1979.864,1101.11c-0.006,0.644-0.011,1.282-0.026,1.916c21.985-7.379,26.243-18.485,26.243-18.485
			c-6.857,4.851-26.274,11.327-26.274,11.327C1979.848,1097.471,1979.874,1099.288,1979.864,1101.11z"/>
	</g>
	<g>
		<g>
			<polygon style="fill:#292C47;" points="2241.357,1173.989 2177.877,1208.883 2114.128,1108.563 2191.231,1081.781 			"/>
		</g>
		<g>
			<polygon style="fill:#E2D2CA;" points="2237.332,1170.976 2177.967,1203.607 2118.35,1109.791 2190.455,1084.744 			"/>
		</g>
		<g>
			<path style="fill:#EEA886;" d="M2259.073,1153.431c0,0-11.049-5.285-15.898-8.047c-4.85-2.763-17.326-6.554-18.333-7.454
				s-36.981-3.12-39.163-5.002c-2.182-1.883-4.303,4.412,5.02,6.454c9.324,2.042,22.3,7.036,23.009,10.68
				c0.71,3.644-9.576,4.507-10.618,7.509s0.292,2.328,1.767,2.973c1.475,0.644,12.234-5.316,16.967-3.625
				c4.731,1.691,11.964-0.65,15.592,0.591c3.626,1.242,21.261,7.176,21.261,7.176L2259.073,1153.431z"/>
		</g>
		<g>
			<path style="fill:#EEA886;" d="M2174.783,1196.296c0,0-9.282-8.354-13.773-11.85c-4.491-3.494-12.923-13.774-14.163-14.374
				c-1.241-0.598-17.341-33.634-19.964-34.957c-2.623-1.324,2.481-5.773,8.037,2.217c5.555,7.991,15.313,18.273,19.023,17.523
				c3.71-0.75,0.518-10.779,2.941-12.93c2.422-2.15,2.308-0.631,3.488,0.508c1.182,1.138-0.245,13.599,3.191,17.399
				c3.437,3.8,4.046,11.528,6.628,14.463s15.04,17.241,15.04,17.241L2174.783,1196.296z"/>
		</g>
		<g>
			<path style="fill:#424773;" d="M2374.687,1642.827c0,0,2.008,13.938,2.259,16.03c0.251,2.094,22.336-1.232,22.336-1.232
				l1.789-16.592C2401.07,1641.033,2377.447,1640.861,2374.687,1642.827z"/>
		</g>
		<g>
			<path style="fill:#292C47;" d="M2376.71,1657.085c0,0-6.997,8.398-13.765,12.059c-6.769,3.661-17.403,5.111-21.405,8.899
				c-2.889,2.736-10.522,14.511,17.587,14.273c28.108-0.238,41.661,1.663,44.672-2.852c3.012-4.515-4.357-33.323-4.357-33.323
				S2392.785,1658.537,2376.71,1657.085z"/>
		</g>
		<g>
			<path style="fill:#424773;" d="M2216.442,1642.827c0,0,2.008,13.938,2.259,16.03c0.251,2.094,22.337-1.232,22.337-1.232
				l1.788-16.592C2242.826,1641.033,2219.203,1640.861,2216.442,1642.827z"/>
		</g>
		<g>
			<path style="fill:#292C47;" d="M2218.467,1657.085c0,0-6.998,8.398-13.766,12.059c-6.769,3.661-31.674,6.668-35.676,10.457
				c-2.889,2.734-7.693,13.745,31.856,12.716c28.1-0.731,41.661,1.663,44.673-2.852s-4.357-33.323-4.357-33.323
				S2234.926,1658.7,2218.467,1657.085z"/>
		</g>
		<g>
			<path style="fill:#292C47;" d="M2356.398,1284.711c0,0,20.752,32.971,19.203,62.774c-1.548,29.803,7.525,62.342,10.642,93.475
				c3.476,34.708,17.698,116.875,18.214,135.441s-2.208,77.851-2.208,77.851l-28.469,0.651c0,0-23.912-143.649-30.104-158.307
				s-36.902-119.151-37.935-130.878C2304.709,1353.993,2356.398,1284.711,2356.398,1284.711z"/>
		</g>
		<g>
			<path style="fill:#292C47;" d="M2247.156,1289.178c0,0-15.639,81.686-17.703,99.927c-2.063,18.241-3.44,88.274-4.472,99.675
				c-1.033,11.4-6.881,149.186-12.387,166.124h36.397c0,0,27.939-100.165,27.939-147.558s21.585-103.029,35.518-134.298
				c13.934-31.27,45.827-32.01,54.393-90.024C2366.842,1283.023,2258.753,1270.777,2247.156,1289.178z"/>
		</g>
		<g>
			<path style="fill:#EEA886;" d="M2321.77,1007.515c0,0-27.854-10.404-40.697,10.799c-12.843,21.202-11.605,63.65,2.435,68.87
				s35.131,2.49,42.319-10.777c7.188-13.267,13.677-32.447,13.366-45.266C2338.88,1018.322,2329.083,1011.215,2321.77,1007.515z"/>
		</g>
		<g>
			<path style="fill:#EEA886;" d="M2286.53,1088.154c0,0,1.159,7.521-0.757,11.226c-1.916,3.704,36.087,3.801,36.087,3.801
				s3.085-20.15,8.933-37.176C2336.642,1048.979,2286.53,1088.154,2286.53,1088.154z"/>
		</g>
		<g>
			<path style="fill:#3A3F47;" d="M2330.793,1066.005c0,0-2.621,4.327-13.328,2.647c-10.706-1.678-23.768-15.922-28.238-17.486
				s-4.513-4.189-4.513-4.189l-2.799,4.088l-4.748,0.3c0,0,4.331-12.741-2.202-17.938c-6.533-5.197,6.78-41.243,41.116-29.242
				c0,0,26.372,7.269,25.413,22.268S2336.695,1058.535,2330.793,1066.005z"/>
		</g>
		<g>
			<path style="fill:#E2D2CA;" d="M2283.519,1098.934c0,0,0.12-7.078,3.328-7.757s35.413-3.775,39.352-2.228v8.246
				C2326.198,1097.195,2318.61,1101.864,2283.519,1098.934z"/>
		</g>
		<g>
			<path style="fill:#EEA886;" d="M2285.423,1041.521c0.601-2.516,6.997-9.704,9.447-2.007c2.449,7.696-3.701,18.05-7.131,17.164
				C2284.309,1055.793,2283.901,1047.899,2285.423,1041.521z"/>
		</g>
		<g>
			<path style="fill:#323657;" d="M2155.702,1182.564c0.016-0.007,0.032-0.009,0.054-0.005
				C2155.535,1182.656,2155.503,1182.665,2155.702,1182.564z"/>
		</g>
		<g>
			<path style="fill:#5B94E2;" d="M2379.81,1363.256c0,0-17.082,5.029-46.211,8.24c-29.13,3.21-101.911-1.161-102.37-4.601
				c-0.46-3.442,15.656-128.144,14.739-134.567c-0.917-6.421-1.408-29.304-1.408-29.304c-0.36,6.271-6.747,31.88-14.458,45.841
				c-2.786,5.045-12.133,20.854-16.636,17.258c-21.805-17.409-55.568-83.01-57.709-83.563c1.8-0.782,16.002-7.321,17.995-7.985
				c1.745-0.582,17.475,16.072,27.005,26.396c4.25,4.602,7.267,7.945,7.267,7.945c2.753-6.192,12.778-45.202,15.892-58.702
				c7.027-30.448,5.946-31.714,5.946-31.714c21.311-6.447,53.657-19.567,53.657-19.567l42.681-1.739c0,0,39.172,8.623,54.599,15.592
				c1.463,0.66,1.47,34.945,5.485,43.936l-12.79,26.982c0,0-7.389,53.451-8.921,77.223
				C2363.867,1271.839,2379.81,1363.256,2379.81,1363.256z"/>
		</g>
		<g>
			<path style="fill:#5B94E2;" d="M2388.056,1201.231c-1.115,3.598-6.175,6.637-9.462,7.966c-2.104,0.852-4.462,1.127-6.833,0.688
				l-1.672-0.309v-0.002l-29.249-5.425c0,0-6.4-73.705,39.958-91.364C2382.023,1113.186,2398.293,1168.23,2388.056,1201.231z"/>
		</g>
		<g>
			<path style="fill:#3D6396;" d="M2378.594,1209.195c0,0,0,0,0,0.002c-2.104,0.852-4.462,1.127-6.833,0.688l-1.672-0.309v-0.002
				l2.885-37.664L2378.594,1209.195z"/>
		</g>
		<g>
			<path style="fill:#3D6396;" d="M2208.023,1208.916l-3.574,15.139c0,0-3.879-15.191-3.692-23.084
				C2205.007,1205.572,2208.023,1208.916,2208.023,1208.916z"/>
		</g>
		<g>
			<path style="fill:#3A3F47;" d="M2329.702,1010.016c0,0,36.508-4.212,0.624,56.764L2329.702,1010.016z"/>
		</g>
		<g>
			<polygon style="fill:#292C47;" points="2143.474,1103.181 2139.764,1096.806 2168.991,1086.721 2172.7,1093.063 			"/>
		</g>
	</g>
	<g>
		<path style="fill:#587AA3;" d="M1177.157,1695.961h277.844c19.875,0,35.986-16.111,35.986-35.986v-740.01
			c0-19.875-16.111-35.986-35.986-35.986h-277.844c-19.875,0-35.986,16.111-35.986,35.986v740.01
			C1141.171,1679.85,1157.283,1695.961,1177.157,1695.961z"/>
		
			<linearGradient id="SVGID_00000146490397672670545640000000453351225046625415_" gradientUnits="userSpaceOnUse" x1="1127.1401" y1="1289.4512" x2="1540.457" y2="1289.4512">
			<stop  offset="0" style="stop-color:#FF9F55"/>
			<stop  offset="1" style="stop-color:#FFD255"/>
		</linearGradient>
		<path style="fill:url(#SVGID_00000146490397672670545640000000453351225046625415_);" d="M1166.581,1702.195h334.437
			c21.782,0,39.439-17.658,39.439-39.44V916.148c0-21.782-17.657-39.441-39.439-39.441h-334.437
			c-21.782,0-39.44,17.658-39.44,39.441v746.607C1127.14,1684.537,1144.798,1702.195,1166.581,1702.195z"/>
		<path style="opacity:0.98;fill:#A3CDFF;" d="M1192.17,1695.961h306.232c19.879,0,35.992-16.114,35.992-35.993V919.971
			c0-19.878-16.113-35.993-35.992-35.993H1192.17c-19.878,0-35.993,16.114-35.993,35.993v739.997
			C1156.177,1679.847,1172.292,1695.961,1192.17,1695.961z"/>
		<g>
			<g>
				<g>
					<g>
						<path style="fill:#EDDAD3;" d="M1359.587,1160.713l15.13,23.846l13.965,22.006c-0.033-0.117-0.963-3.45-2.54-13.1
							c-0.301-1.832-0.623-3.893-0.968-6.199c-0.101-0.683-0.25-1.36-0.438-2.029c0,0,0,0,0-0.002
							c-5.977-13.779-24.455-24.168-25.131-24.513C1359.594,1160.715,1359.587,1160.713,1359.587,1160.713z"/>
					</g>
				</g>
			</g>
		</g>
		<g>
			<g>
				<g>
					<path style="fill:#FFCA55;" d="M1384.671,1185.072c0.001,0,0.001-0.001,0.001-0.001s0.808,1.672,1.469,8.394l-5.471-8.258
						c0,0-9.771-14.01-13.119-17.652c-3.348-3.643-7.947-6.833-7.947-6.833S1378.829,1169.959,1384.671,1185.072z"/>
				</g>
			</g>
		</g>
		<g>
			<g>
				<g>
					<g>
						<path style="fill:#EEA886;" d="M1425.72,1340.525c0,0,3.045,2.91,4.097,5.628c0.833,2.15,3.617,4.998,4.934,6.623
							c1.317,1.626,6.233,9.233,6.935,11.351c0.287,0.864-0.093,6.844,0.685,8.541c0.778,1.696,2.781,4.95,1.265,5.561
							c-1.516,0.609-4.125-1.827-4.125-1.827s0.613,1.588-0.55,2.526c-2.259,1.827-3.938,1.095-3.938,1.095
							s-0.452,2.014-1.589,2.542c-2.507,1.164-4.111,0.408-4.111,0.408s-0.886,1.281-2.732,1.684
							c-2.361,0.516-3.926-1.28-3.926-1.28s-2.803,1.313-4.062,0.129c-1.258-1.184-1.53-2.701-2.246-3.874
							c-0.716-1.174-3.681-12.605-2.153-21.711c1.528-9.104-5.584-15.932-5.584-15.932L1425.72,1340.525z"/>
					</g>
				</g>
			</g>
			<g>
				<path style="fill:#0E1E2B;" d="M1450.853,1410.533h-39.314c-3.993,0-7.241-3.248-7.241-7.241v-24.791
					c0-3.993,3.249-7.241,7.241-7.241h39.314c3.993,0,7.241,3.248,7.241,7.241v24.791
					C1458.094,1407.285,1454.846,1410.533,1450.853,1410.533z M1411.538,1376.118c-1.313,0-2.382,1.069-2.382,2.383v24.791
					c0,1.313,1.068,2.382,2.382,2.382h39.314c1.313,0,2.382-1.068,2.382-2.382v-24.791c0-1.313-1.068-2.383-2.382-2.383H1411.538z"
					/>
			</g>
			<g>
				<rect x="1357.445" y="1399.893" style="fill:#54281A;" width="147.501" height="105.679"/>
			</g>
			<g>
				<path style="fill:#EEA886;" d="M1368.32,1117.266c0,0-7.331-0.053-10.554,22.537c-3.223,22.592,2.884,32.034,3.612,41.436
					c0.727,9.4,11.756,70.117,12.056,72.803c0.299,2.684,1.779,34.996,6.079,43.571c4.3,8.575,35.911,57.177,36.333,59.603
					c0.423,2.427,15.35-8.466,15.35-8.466s-24.835-51.984-26.275-57.916s-11.436-36.218-9.855-45.465
					c1.58-9.246-4.426-60.247-3.845-65.923S1382.798,1120.713,1368.32,1117.266z"/>
			</g>
			<g>
				<path style="fill:#E64646;" d="M1368.544,1117.105c0,0-7.555,0.107-10.778,22.697c-3.223,22.592-0.31,30.726,1.639,40.519
					c1.84,9.248,8.108,65.82,8.407,68.505s7.8,36.789,11.7,48.786c2.966,9.123,31.153,56.886,31.576,59.313
					c0.423,2.426,21.914-11.16,21.914-11.16s-27.56-53.77-29-59.701s-6.106-26.465-6.257-35.844
					c-0.176-11.018-7.106-65.1-6.525-70.775S1389.627,1124.83,1368.544,1117.105z"/>
			</g>
			<path style="fill:#EDDAD3;" d="M1305.337,1643.984c0,0,13.157,19.538,18.459,24.251c0,0,12.204,4.271,12.96,12.568
				c0.495,5.426,0.02,14.141-13.922,14.534c-13.942,0.393-22.889-4.476-25.442-12.92c-2.553-8.443-7.372-12.219-7.372-12.219v17.674
				h-3.142c0,0-0.786-17.084-0.982-20.227c-0.196-3.142-2.256-15.222,4.37-20.571
				C1296.894,1641.726,1305.337,1643.984,1305.337,1643.984z"/>
			<path style="fill:#EDDAD3;" d="M1394.589,1628.372c0,0,2.277,5.385,6.578,10.997c3.154,4.115,12.961,21.012,17.281,22.19
				c4.32,1.178,17.673,3.534,18.852,10.996c1.179,7.463,1.768,12.764-11.39,13.354c-13.157,0.589-21.797,1.375-28.081-7.854
				c-6.284-9.23-16.299-15.907-16.299-15.907v24.082h-5.105c0,0-2.356-25.063-3.731-26.831c-1.375-1.767-4.909-21.011,7.266-31.026
				C1392.134,1618.357,1394.589,1628.372,1394.589,1628.372z"/>
			<path style="fill:#EEA886;" d="M1296.501,1266.852c0,0-16.614,21.601-21.12,47.227c-4.507,25.627,2.661,111.639,2.464,124.305
				c-0.196,12.665-11.979,44.184-9.622,68.043c2.356,23.858,22.043,140.649,22.043,140.649l15.071-3.091
				c0,0-1.473-121.064,0-131.079c1.473-10.015,4.429-46.521,5.018-50.644c0.589-4.125,37.398-112.409,37.398-130.885
				C1347.754,1312.9,1336.561,1236.708,1296.501,1266.852z"/>
			<path style="fill:#EEA886;" d="M1379.959,1275.295c0,0,27.296,104.176,30.536,118.609c3.24,14.434,7.934,26.336,7.934,32.465
				c0,14.219-5.282,37.051-5.282,37.051l-18.557,164.952h-14.63c0,0-9.229-96.32-10.702-115.762
				c-1.473-19.44,10.604-49.485,7.658-57.733c-2.945-8.247-47.424-103.39-47.424-103.39S1295.813,1245.054,1379.959,1275.295z"/>
			<path style="fill:#EEA886;" d="M1326.061,1669.235c0,0-11.463,5.891-21.871-1.888c-10.407-7.778-13.924-20.272-13.924-20.272
				l15.071-3.091L1326.061,1669.235z"/>
			<path style="fill:#EEA886;" d="M1418.448,1661.56c0,0-11.782,2.945-16.299,0c-4.517-2.946-19.871-28.899-24.958-30.454
				c0,0,4.928-9.999,17.398-2.733C1394.589,1628.372,1415.109,1657.239,1418.448,1661.56z"/>
			<path style="fill:#1D3B54;" d="M1414.893,1410.518c0,0-50.151,29.518-144.152,29.518c0,0-5.323-109.025,8.343-139.697
				c13.666-30.674,104.391-11.6,104.391-11.6S1411.665,1387.964,1414.893,1410.518z"/>
			<g>
				<path style="fill:#EDDAD3;" d="M1346.375,1108.965c0,0,14.577,6.883,19.638,7.896s24.7,26.522,28.142,35.835
					c3.442,9.313,0,23.283-7.086,39.683s-0.405,21.865-3.645,38.266c-3.239,16.399-6.074,51.121-5.466,60.231
					c0.607,9.111-81.889,10.83-100.718-5.771c0,0,18.924-28.343,21.354-32.393c2.43-4.049,0.405-26.117-1.822-31.786
					s-17.049-53.876-17.049-53.876s-12.126-37.025-1.172-45.531c9.516-7.391,35.45-10.025,40.106-11.645
					C1323.313,1108.253,1336.859,1107.547,1346.375,1108.965z"/>
			</g>
			<g>
				<path style="fill:#D6C5BE;" d="M1351.031,1141.46l8.857-10.373l-7.691-27.308
					C1352.197,1103.779,1349.614,1118.986,1351.031,1141.46z"/>
			</g>
			<g>
				<path style="fill:#EEA886;" d="M1327.979,1005.508c8.662-3.048,40.492-10.529,47.983,30.166
					c7.491,40.694-14.982,69.646-35.633,61.953c-20.65-7.693-33.406-35.836-34.62-57.297
					C1304.493,1018.869,1317.045,1009.354,1327.979,1005.508z"/>
			</g>
			<g>
				<path style="fill:#252E3B;" d="M1375.961,1035.674c0,0,1.559-34.823-33.062-36.038s-43.934,27.289-41.1,48.063
					c2.834,20.773,17.166,31.731,17.166,31.731s-1.245-16.808,5.474-21.172c6.718-4.364,33.645-13.069,45.388-33.315
					C1369.827,1024.943,1375.27,1031.332,1375.961,1035.674z"/>
			</g>
			<g>
				<path style="fill:#252E3B;" d="M1332.796,1031.985c-4.561,13.866-18.085,21.876-30.207,17.89
					c-12.122-3.987-18.252-18.461-13.691-32.328c4.561-13.867,18.085-21.877,30.208-17.89
					C1331.228,1003.645,1337.357,1018.118,1332.796,1031.985z"/>
			</g>
			<g>
				<path style="fill:#EEA886;" d="M1353.332,1092.144c0,0-2.908,26.741-2.301,35.447c0,0-15.146,15.179-32.375-17.718
					c0,0,7.249-13.56,1.793-32.035C1314.993,1059.361,1353.332,1092.144,1353.332,1092.144z"/>
			</g>
			<g>
				<polygon style="fill:#EEA886;" points="1351.031,1127.591 1351.031,1141.46 1333.599,1128.434 				"/>
			</g>
			<g>
				<polygon style="fill:#D6C5BE;" points="1351.031,1141.46 1343.793,1132.501 1319.413,1108.202 1311.526,1115.798 				"/>
			</g>
			<g>
				<path style="fill:#E64646;" d="M1316.029,1110.526c0,0,20.459,31.051,21.437,44.716s-7.604,115.893-14.476,148.754
					c-6.871,32.861-56.525-3.707-56.525-3.707s33.366-54.005,20.559-97.248s-17.463-60.533-17.463-60.533s4.407-24.081,20.023-27.47
					C1303.276,1112.067,1316.029,1110.526,1316.029,1110.526z"/>
			</g>
			<g>
				<path style="fill:#E64646;" d="M1395.502,1156.844c0,0,3.691,13.059-10.686,41.922c0,0,0.229,36.939,0.634,48.479
					c0.405,11.54,3.138,55.171,3.138,55.171l-14.218,8.327c-2.864,1.677-6.41-0.649-6.01-3.944
					c4.026-33.209,17.125-159.181-11.169-193.041l11.354,3.348C1368.544,1117.105,1388.716,1133.611,1395.502,1156.844z"/>
			</g>
			<g>
				<path style="fill:#EEA886;" d="M1327.918,1050.898c-1.259-3.193-5.467-4.089-7.896-2.268c-2.43,1.822-3.847,7.289,0,14.375
					S1337.434,1075.031,1327.918,1050.898z"/>
			</g>
			<g>
				<polygon style="fill:#FAE6DE;" points="1359.889,1131.087 1371.05,1134.171 1352.197,1103.779 				"/>
			</g>
			<g>
				<polygon style="fill:#FAE6DE;" points="1343.793,1132.501 1333.599,1145.863 1312.665,1110.973 1319.413,1108.202 				"/>
			</g>
			<g>
				<path style="fill:#A77860;" d="M1352.733,1098.029l-0.536,5.266c0,0-12.004,2.35-27.758-16.865
					C1324.439,1086.43,1335.605,1100.051,1352.733,1098.029z"/>
			</g>
			<g>
				<g>
					<g>
						<path style="fill:#EEA886;" d="M1414.683,1261.743c0,0,7.079,4.562,11.153,2.011c3.464-2.168,9.507-2.469,11.367-2.564
							c2.488-0.129,9.979-3.367,10.172-0.23c0.193,3.136-12.092,5.934-14.551,7.035c-2.458,1.102,8.368,6.388,9.586,8.912
							c1.219,2.524-8.553,19.961-15.564,15.473c-7.01-4.488-11.538-13.91-12.927-14.455s-5.23-3.063-5.23-3.063L1414.683,1261.743z"
							/>
					</g>
				</g>
			</g>
			<g>
				<path style="fill:#EEA886;" d="M1280.04,1119.348c0,0,10.002-1.88,18.505,7.23c8.503,9.111,12.755,24.094,14.982,28.952
					c2.227,4.859,30.369,49.806,31.989,50.817c1.62,1.013,30.217,24.091,43.174,36.44c12.958,12.351,38.215,26.12,38.215,26.12
					l-9.516,13.362c0,0-76.732-40.897-86.451-55.879c-9.718-14.982-48.516-56.489-48.516-56.489S1259.085,1134.439,1280.04,1119.348
					z"/>
			</g>
			<g>
				<g>
					<g>
						<path style="fill:#EEA886;" d="M1441.021,1275.473c0,0,20.55,15.164,21.074,17.321c0.523,2.157-0.364,3.222-2.345,1.884
							c-1.981-1.338-20.279-14.077-20.279-14.077s21.306,22.036,22.122,23.709c0.477,0.979-1.119,3.144-2.246,2.525
							c-1.126-0.618-23.493-21.251-23.493-21.251s19.856,20.61,20.122,22.214c0.23,1.402-1.732,3.021-3.31,1.594
							c-1.577-1.428-21.088-19.515-21.088-19.515s13.508,15.909,12.933,17.396c-0.352,0.911-1.644,2.845-5.002-1.369
							c-3.357-4.215-12.322-13.325-12.322-13.325L1441.021,1275.473z"/>
					</g>
				</g>
			</g>
			<path style="fill:#E64646;" d="M1388.2,1191.523c0,0,0.678,46.113-2.136,68.353l-1.248-61.11L1388.2,1191.523z"/>
			<g>
				<path style="fill:#E64646;" d="M1285.777,1116.354c0,0,5.101,1.113,13.604,10.224c8.503,9.111,12.755,24.094,14.982,28.952
					c2.227,4.859,30.369,49.806,31.989,50.817c1.62,1.013,25.054,17.105,38.012,29.455c12.958,12.351,37.075,27.105,37.075,27.105
					l-12.375,18.373c0,0-67.669-37.479-78.402-51.751c-11.464-15.246-52.337-60.008-52.337-60.008
					S1252.323,1128.581,1285.777,1116.354z"/>
			</g>
			<g>
				<g>
					<path style="fill:#DB9C7C;" d="M1439.625,1375.235c0,0-2.639-10.263-5.938-11.794c-3.3-1.531-2.557,2.223-2.557,2.223
						s-0.671-3.725-3.742-3.517c-3.071,0.207-1.963,4.559-1.963,4.559s-1.279-2.69-4.193-1.38c-2.915,1.311-1.162,4.716-1.162,4.716
						s-3.939-2.81-4.887,1.018c-1.599,6.462,3.418,12.445,3.418,12.445s1.347,1.325,4.062-0.129c0,0,3.084,3.483,6.658-0.403
						c0,0,5.192,1.402,5.7-2.95C1435.021,1380.022,1440.637,1381.194,1439.625,1375.235z"/>
				</g>
			</g>
			<path style="fill:#9C2F2F;" d="M1331.442,1240.324l-23.166-37.377c0,0,19.752,23.322,21.81,25.826
				c2.059,2.502,2.233,2.688,2.233,2.688S1331.718,1239.052,1331.442,1240.324z"/>
		</g>
		<path style="opacity:0.73;fill:#6BB0FF;" d="M1505.993,919.97v740.013c0,19.867-16.104,35.971-35.987,35.971h-277.842
			c-19.866,0-35.987-16.104-35.987-35.971V919.97c0-19.884,16.121-35.988,35.987-35.988h277.842
			C1489.89,883.981,1505.993,900.086,1505.993,919.97z"/>
		<g>
			<g>
				<g>
					<g>
						<path style="fill:#EEA886;" d="M1425.72,1340.525c0,0,3.045,2.91,4.097,5.628c0.833,2.15,3.617,4.998,4.934,6.623
							c1.317,1.626,6.233,9.233,6.935,11.351c0.287,0.864-0.093,6.844,0.685,8.541c0.778,1.696,2.781,4.95,1.265,5.561
							c-1.516,0.609-4.125-1.827-4.125-1.827s0.613,1.588-0.55,2.526c-2.259,1.827-3.938,1.095-3.938,1.095
							s-0.452,2.014-1.589,2.542c-2.507,1.164-4.111,0.408-4.111,0.408s-0.886,1.281-2.732,1.684
							c-2.361,0.516-3.926-1.28-3.926-1.28s-2.803,1.313-4.062,0.129c-1.258-1.184-1.53-2.701-2.246-3.874
							c-0.716-1.174-3.681-12.605-2.153-21.711c1.528-9.104-5.584-15.932-5.584-15.932L1425.72,1340.525z"/>
					</g>
				</g>
			</g>
			<g>
				<path style="fill:#0E1E2B;" d="M1414.915,1374.409v-0.035c-0.034-0.035-0.034-0.035-0.034-0.035s0,0,0.034-0.034
					c-0.034-0.035-0.034-0.069-0.034-0.104c0-0.034-0.036-0.069-0.036-0.104c-0.173-0.867-0.346-1.804-0.485-2.845h-2.81
					c-2.011,0-3.78,0.798-5.099,2.082c-0.277,0.312-0.554,0.623-0.833,0.971c1.422,5.55,2.636,10.301,3.538,13.908v-9.712
					c0-1.317,1.076-2.394,2.393-2.394h3.746C1415.158,1375.588,1415.019,1375.033,1414.915,1374.409z M1414.915,1374.409v-0.035
					c-0.034-0.035-0.034-0.035-0.034-0.035s0,0,0.034-0.034c-0.034-0.035-0.034-0.069-0.034-0.104c0-0.034-0.036-0.069-0.036-0.104
					c-0.173-0.867-0.346-1.804-0.485-2.845h-2.81c-2.011,0-3.78,0.798-5.099,2.082c-0.277,0.312-0.554,0.623-0.833,0.971
					c1.422,5.55,2.636,10.301,3.538,13.908v-9.712c0-1.317,1.076-2.394,2.393-2.394h3.746
					C1415.158,1375.588,1415.019,1375.033,1414.915,1374.409z M1414.915,1374.409v-0.035c-0.034-0.035-0.034-0.035-0.034-0.035
					s0,0,0.034-0.034c-0.034-0.035-0.034-0.069-0.034-0.104c0-0.034-0.036-0.069-0.036-0.104c-0.173-0.867-0.346-1.804-0.485-2.845
					h-2.81c-2.011,0-3.78,0.798-5.099,2.082c-0.277,0.312-0.554,0.623-0.833,0.971c1.422,5.55,2.636,10.301,3.538,13.908v-9.712
					c0-1.317,1.076-2.394,2.393-2.394h3.746C1415.158,1375.588,1415.019,1375.033,1414.915,1374.409z M1414.915,1374.409v-0.035
					c-0.034-0.035-0.034-0.035-0.034-0.035s0,0,0.034-0.034c-0.034-0.035-0.034-0.069-0.034-0.104c0-0.034-0.036-0.069-0.036-0.104
					c-0.173-0.867-0.346-1.804-0.485-2.845h-2.81c-2.011,0-3.78,0.798-5.099,2.082c-0.277,0.312-0.554,0.623-0.833,0.971
					c1.422,5.55,2.636,10.301,3.538,13.908v-9.712c0-1.317,1.076-2.394,2.393-2.394h3.746
					C1415.158,1375.588,1415.019,1375.033,1414.915,1374.409z M1414.915,1374.409v-0.035c-0.034-0.035-0.034-0.035-0.034-0.035
					s0,0,0.034-0.034c-0.034-0.035-0.034-0.069-0.034-0.104c0-0.034-0.036-0.069-0.036-0.104c-0.173-0.867-0.346-1.804-0.485-2.845
					h-2.81c-2.011,0-3.78,0.798-5.099,2.082c-0.277,0.312-0.554,0.623-0.833,0.971c1.422,5.55,2.636,10.301,3.538,13.908v-9.712
					c0-1.317,1.076-2.394,2.393-2.394h3.746C1415.158,1375.588,1415.019,1375.033,1414.915,1374.409z M1414.915,1374.409v-0.035
					c-0.034-0.035-0.034-0.035-0.034-0.035s0,0,0.034-0.034c-0.034-0.035-0.034-0.069-0.034-0.104c0-0.034-0.036-0.069-0.036-0.104
					c-0.173-0.867-0.346-1.804-0.485-2.845h-2.81c-2.011,0-3.78,0.798-5.099,2.082c-0.277,0.312-0.554,0.623-0.833,0.971
					c1.422,5.55,2.636,10.301,3.538,13.908v-9.712c0-1.317,1.076-2.394,2.393-2.394h3.746
					C1415.158,1375.588,1415.019,1375.033,1414.915,1374.409z M1414.915,1374.409v-0.035c-0.034-0.035-0.034-0.035-0.034-0.035
					s0,0,0.034-0.034c-0.034-0.035-0.034-0.069-0.034-0.104c0-0.034-0.036-0.069-0.036-0.104c-0.173-0.867-0.346-1.804-0.485-2.845
					h-2.81c-2.011,0-3.78,0.798-5.099,2.082c-0.277,0.312-0.554,0.623-0.833,0.971c1.422,5.55,2.636,10.301,3.538,13.908v-9.712
					c0-1.317,1.076-2.394,2.393-2.394h3.746C1415.158,1375.588,1415.019,1375.033,1414.915,1374.409z M1450.848,1371.252h-39.297
					c-2.011,0-3.78,0.798-5.099,2.082c-0.277,0.312-0.554,0.623-0.833,0.971c-0.832,1.18-1.317,2.636-1.317,4.196v24.8
					c0,3.988,3.26,7.249,7.249,7.249h39.297c3.989,0,7.25-3.261,7.25-7.249v-24.8
					C1458.098,1374.513,1454.837,1371.252,1450.848,1371.252z M1453.241,1403.301c0,1.317-1.075,2.358-2.394,2.358h-39.297
					c-1.317,0-2.393-1.041-2.393-2.358v-24.8c0-1.317,1.076-2.394,2.393-2.394h39.297c1.318,0,2.394,1.076,2.394,2.394V1403.301z
					 M1414.915,1374.409v-0.035c-0.034-0.035-0.034-0.035-0.034-0.035s0,0,0.034-0.034c-0.034-0.035-0.034-0.069-0.034-0.104
					c0-0.034-0.036-0.069-0.036-0.104c-0.173-0.867-0.346-1.804-0.485-2.845h-2.81c-2.011,0-3.78,0.798-5.099,2.082
					c-0.277,0.312-0.554,0.623-0.833,0.971c1.422,5.55,2.636,10.301,3.538,13.908v-9.712c0-1.317,1.076-2.394,2.393-2.394h3.746
					C1415.158,1375.588,1415.019,1375.033,1414.915,1374.409z M1414.915,1374.409v-0.035c-0.034-0.035-0.034-0.035-0.034-0.035
					s0,0,0.034-0.034c-0.034-0.035-0.034-0.069-0.034-0.104c0-0.034-0.036-0.069-0.036-0.104c-0.173-0.867-0.346-1.804-0.485-2.845
					h-2.81c-2.011,0-3.78,0.798-5.099,2.082c-0.277,0.312-0.554,0.623-0.833,0.971c1.422,5.55,2.636,10.301,3.538,13.908v-9.712
					c0-1.317,1.076-2.394,2.393-2.394h3.746C1415.158,1375.588,1415.019,1375.033,1414.915,1374.409z M1414.915,1374.409v-0.035
					c-0.034-0.035-0.034-0.035-0.034-0.035s0,0,0.034-0.034c-0.034-0.035-0.034-0.069-0.034-0.104c0-0.034-0.036-0.069-0.036-0.104
					c-0.173-0.867-0.346-1.804-0.485-2.845h-2.81c-2.011,0-3.78,0.798-5.099,2.082c-0.277,0.312-0.554,0.623-0.833,0.971
					c1.422,5.55,2.636,10.301,3.538,13.908v-9.712c0-1.317,1.076-2.394,2.393-2.394h3.746
					C1415.158,1375.588,1415.019,1375.033,1414.915,1374.409z M1414.915,1374.409v-0.035c-0.034-0.035-0.034-0.035-0.034-0.035
					s0,0,0.034-0.034c-0.034-0.035-0.034-0.069-0.034-0.104c0-0.034-0.036-0.069-0.036-0.104c-0.173-0.867-0.346-1.804-0.485-2.845
					h-2.81c-2.011,0-3.78,0.798-5.099,2.082c-0.277,0.312-0.554,0.623-0.833,0.971c1.422,5.55,2.636,10.301,3.538,13.908v-9.712
					c0-1.317,1.076-2.394,2.393-2.394h3.746C1415.158,1375.588,1415.019,1375.033,1414.915,1374.409z M1414.915,1374.409v-0.035
					c-0.034-0.035-0.034-0.035-0.034-0.035s0,0,0.034-0.034c-0.034-0.035-0.034-0.069-0.034-0.104c0-0.034-0.036-0.069-0.036-0.104
					c-0.173-0.867-0.346-1.804-0.485-2.845h-2.81c-2.011,0-3.78,0.798-5.099,2.082c-0.277,0.312-0.554,0.623-0.833,0.971
					c1.422,5.55,2.636,10.301,3.538,13.908v-9.712c0-1.317,1.076-2.394,2.393-2.394h3.746
					C1415.158,1375.588,1415.019,1375.033,1414.915,1374.409z M1414.915,1374.409v-0.035c-0.034-0.035-0.034-0.035-0.034-0.035
					s0,0,0.034-0.034c-0.034-0.035-0.034-0.069-0.034-0.104c0-0.034-0.036-0.069-0.036-0.104c-0.173-0.867-0.346-1.804-0.485-2.845
					h-2.81c-2.011,0-3.78,0.798-5.099,2.082c-0.277,0.312-0.554,0.623-0.833,0.971c1.422,5.55,2.636,10.301,3.538,13.908v-9.712
					c0-1.317,1.076-2.394,2.393-2.394h3.746C1415.158,1375.588,1415.019,1375.033,1414.915,1374.409z"/>
			</g>
			<g>
				<rect x="1357.445" y="1399.893" style="fill:#292C47;" width="147.501" height="105.679"/>
			</g>
			<g>
				<path style="fill:#EEA886;" d="M1368.32,1117.266c0,0-7.331-0.053-10.554,22.537c-3.223,22.592,2.884,32.034,3.612,41.436
					c0.727,9.4,11.756,70.117,12.056,72.803c0.299,2.684,1.779,34.996,6.079,43.571c4.3,8.575,35.911,57.177,36.333,59.603
					c0.423,2.427,15.35-8.466,15.35-8.466s-24.835-51.984-26.275-57.916s-11.436-36.218-9.855-45.465
					c1.58-9.246-4.426-60.247-3.845-65.923S1382.798,1120.713,1368.32,1117.266z"/>
			</g>
			<g>
				<path style="fill:#E64646;" d="M1368.544,1117.105c0,0-7.555,0.107-10.778,22.697c-3.223,22.592-0.31,30.726,1.639,40.519
					c1.84,9.248,8.108,65.82,8.407,68.505s7.8,36.789,11.7,48.786c2.966,9.123,31.153,56.886,31.576,59.313
					c0.423,2.426,21.914-11.16,21.914-11.16s-27.56-53.77-29-59.701s-6.106-26.465-6.257-35.844
					c-0.176-11.018-7.106-65.1-6.525-70.775S1389.627,1124.83,1368.544,1117.105z"/>
			</g>
			<path style="fill:#EDDAD3;" d="M1394.589,1628.372c0,0,2.277,5.385,6.578,10.997c3.154,4.115,12.961,21.012,17.281,22.19
				c4.32,1.178,17.673,3.534,18.852,10.996c1.179,7.463,1.768,12.764-11.39,13.354c-13.157,0.589-21.797,1.375-28.081-7.854
				c-6.284-9.23-16.299-15.907-16.299-15.907v24.082h-5.105c0,0-2.356-25.063-3.731-26.831c-1.375-1.767-4.909-21.011,7.266-31.026
				C1392.134,1618.357,1394.589,1628.372,1394.589,1628.372z"/>
			<path style="fill:#EEA886;" d="M1347.766,1331.365c0,4.509-2.185,14.29-5.48,26.604c-1.838-19.701-4.683-40.27-7.769-60.352
				c-0.729-4.925-1.491-9.815-2.254-14.672c-0.243-1.387-0.451-2.739-0.66-4.127c-0.555-3.398-1.074-6.799-1.629-10.128
				c1.698,2.116,3.26,4.544,4.716,7.146c1.214,2.289,2.358,4.717,3.399,7.249c1.908,4.647,3.469,9.607,4.752,14.566
				C1346.379,1311.283,1347.766,1324.879,1347.766,1331.365z"/>
			<path style="fill:#EEA886;" d="M1418.418,1426.365c0,14.221-5.272,37.044-5.272,37.044l-4.752,42.176l-13.805,122.783h-14.637
				c0,0,0-0.14-0.069-0.451c-0.66-7.146-9.226-96.632-10.613-115.291c-0.174-2.22-0.174-4.578-0.035-7.041
				c1.11-19.008,10.266-43.39,7.665-50.708c-0.902-2.498-5.549-12.834-11.584-26.084c-2.462-5.341-5.133-11.167-7.873-17.168
				c-4.509-9.712-9.192-19.84-13.423-28.927c-0.347-8.013-0.937-16.302-1.734-24.729c-1.838-19.701-4.683-40.27-7.769-60.352
				c-0.729-4.925-1.491-9.815-2.254-14.672c-0.243-1.387-0.451-2.739-0.66-4.127c0.937-1.075,1.978-2.081,3.087-2.982
				c7.457-6.07,19.181-8.151,37.147-3.122c0.417,0.069,0.833,0.208,1.249,0.347c0.624,0.174,1.248,0.348,1.872,0.555
				c1.11,0.348,2.255,0.729,3.435,1.145c0.52,0.139,1.04,0.348,1.561,0.521c0,0,1.353,5.203,3.538,13.458
				c0,0,0.068,0.208,0.174,0.624c0.103,0.313,0.207,0.764,0.346,1.284c0.937,3.711,2.046,7.942,3.225,12.556
				c1.076,4.058,2.186,8.358,3.365,12.867v0.034c0.555,2.186,1.144,4.406,1.734,6.625v0.035
				c4.647,17.862,9.676,37.251,13.283,51.541c1.422,5.55,2.636,10.301,3.538,13.908c0.59,2.497,1.076,4.439,1.353,5.688
				c0.451,2.046,0.937,4.059,1.422,6c0.555,2.012,1.076,3.92,1.596,5.758c0.45,1.63,0.901,3.191,1.317,4.683
				c0.036,0.069,0.036,0.104,0.036,0.173l0.034,0.035C1416.857,1417.313,1418.418,1422.793,1418.418,1426.365z"/>
			<path style="fill:#EEA886;" d="M1418.448,1661.56c0,0-11.782,2.945-16.299,0c-4.517-2.946-19.871-28.899-24.958-30.454
				c0,0,4.928-9.999,17.398-2.733C1394.589,1628.372,1415.109,1657.239,1418.448,1661.56z"/>
			<path style="fill:#1D3B54;" d="M1414.881,1410.515c0,0,0,0-0.036,0.035c-0.901,0.485-17.758,10.163-49.529,18.243
				c-2.532,0.659-5.168,1.318-7.873,1.908c-4.995,1.18-10.302,2.255-15.92,3.26c2.775-14.705,3.33-32.256,2.497-51.263
				c-0.347-8.013-0.937-16.302-1.734-24.729c-1.838-19.701-4.683-40.27-7.769-60.352c-0.729-4.925-1.491-9.815-2.254-14.672
				c1.942,0,3.884,0.07,5.827,0.14c12.313,0.589,24.036,2.081,32.5,3.364c2.254,0.381,4.3,0.693,6.034,1.006h0.139
				c0.382,0.104,0.764,0.139,1.11,0.208c3.538,0.624,5.619,1.075,5.619,1.075s0.068,0.208,0.174,0.624
				c0.103,0.313,0.207,0.764,0.346,1.284c0.693,2.357,1.908,6.693,3.503,12.381c1.18,4.232,2.567,9.157,4.058,14.604v0.034
				c0.659,2.358,1.318,4.821,2.046,7.354c0,0.034,0,0.034,0,0.069c4.093,15.088,8.845,32.672,12.833,48.246
				c0.937,3.745,1.874,7.353,2.706,10.821c1.458,5.861,2.706,11.202,3.711,15.746c0.451,2.116,0.833,4.059,1.179,5.758
				c0.347,1.804,0.625,3.364,0.798,4.683C1414.881,1410.411,1414.881,1410.446,1414.881,1410.515z"/>
			<g>
				<path style="fill:#EDDAD3;" d="M1391.226,1181.668v0.104c0,0,0,0.035,0,0.069v0.104c-1.179,3.364-2.601,6.798-4.162,10.439
					c-1.006,2.324-1.734,4.439-2.255,6.382c-3.121,11.793,1.388,17.793-1.387,31.875c-0.208,1.145-0.452,2.359-0.66,3.677
					c-0.138,0.833-0.277,1.734-0.416,2.636c-1.11,7.007-2.081,15.644-2.879,24.002c-0.068,1.006-0.173,2.012-0.243,3.018
					c-0.346,3.745-0.624,7.423-0.832,10.786c-0.313,5.134-0.521,9.643-0.521,12.903c0,1.283,0,2.358,0.069,3.226
					c0.035,0.277-0.035,0.521-0.174,0.798c-0.034,0.069-0.034,0.104-0.103,0.174c-0.833,1.387-3.711,2.531-7.979,3.468
					c-6.451,1.388-16.093,2.22-26.845,2.323c-2.706,0.07-5.48,0.035-8.325-0.034c-0.729-4.925-1.491-9.815-2.254-14.672
					c-0.243-1.387-0.451-2.739-0.66-4.127c-0.555-3.398-1.074-6.799-1.629-10.128c-0.313-2.012-0.625-3.988-0.937-5.966
					c-1.943-12.243-3.781-23.967-5.272-34.753c-0.382-2.741-0.728-5.376-1.075-7.979c0-0.138-0.035-0.276-0.035-0.381
					c-0.208-1.734-0.417-3.398-0.624-5.029c-0.798-6.833-1.388-13.146-1.734-18.868c-0.625-10.439-0.173-19.354,0.901-27.123
					c0.036-0.382,0.105-0.764,0.174-1.109c1.699-11.759,4.787-20.95,7.735-29.136c0.381-1.11,0.762-2.186,1.144-3.226
					c0-0.035,0-0.035,0-0.035c0.728-1.977,1.388-3.884,2.012-5.792c0.174-0.485,0.347-0.937,0.485-1.422
					c0.555-1.63,1.041-3.261,1.492-4.891c1.248-4.751,2.081-9.538,2.011-14.741c3.503,0.035,7.041,0.278,10.128,0.729
					c0,0,2.081,0.972,4.96,2.255c0.104,0.069,0.208,0.104,0.277,0.139c0.971,0.416,2.046,0.902,3.122,1.353
					c0.833,0.382,1.63,0.729,2.462,1.041l0.035,0.034c0.52,0.208,1.041,0.416,1.561,0.624c2.845,1.146,5.55,2.116,7.215,2.463
					c0.382,0.069,0.797,0.278,1.317,0.625c0,0,0,0,0.035,0h0.035c2.705,1.699,7.145,6.485,11.689,12.174l0.035,0.035
					c1.769,2.185,3.572,4.543,5.237,6.901c0,0,0,0.035,0.035,0.035c4.162,5.723,7.769,11.411,9.365,15.157
					c0.173,0.416,0.346,0.832,0.485,1.248C1396.775,1160.232,1395.284,1170.049,1391.226,1181.668z"/>
			</g>
			<g>
				<path style="fill:#D6C5BE;" d="M1351.031,1141.46l8.857-10.373l-7.691-27.308
					C1352.197,1103.779,1349.614,1118.986,1351.031,1141.46z"/>
			</g>
			<g>
				<path style="fill:#EEA886;" d="M1352.726,1098.009c-0.035,0.034-0.069,0.034-0.104,0.034c-3.988,1.18-8.185,1.11-12.278-0.416
					c-2.115-0.797-4.162-1.803-6.104-2.982c-0.036-0.173-0.105-0.347-0.139-0.521c-0.208-0.693-0.417-1.422-0.659-2.15
					c-1.7-5.237-2.776-10.925-3.365-16.821c-0.208-2.221-0.381-4.51-0.485-6.799c-0.174-4.197-0.139-8.463,0.069-12.66
					c-0.035-0.034-0.035-0.068-0.069-0.138c0,0,0.035-0.035,0.069-0.035c0.313-7.18,1.11-14.255,2.081-20.845
					c0.728-5.029,1.595-9.747,2.498-13.978v-0.035c1.561-7.699,3.156-13.873,4.196-17.481c12.833-1.352,31.597,2.22,37.355,31.667
					c0.069,0.277,0.139,0.555,0.172,0.833C1381.964,1068.215,1368.785,1093.223,1352.726,1098.009z"/>
			</g>
			<g>
				<path style="fill:#252E3B;" d="M1375.964,1035.682c-0.034-0.278-0.103-0.556-0.172-0.833c-1.18-4.267-5.966-9.92-5.966-9.92
					c-9.677,16.684-29.689,25.563-40.164,30.592c0.313-7.18,1.11-14.255,2.081-20.845c0.728-5.029,1.595-9.747,2.498-13.978
					c-0.036-0.035,0-0.035,0-0.035c1.561-7.699,3.156-13.873,4.196-17.481c0.52-2.047,0.901-3.26,1.006-3.538
					c1.109-0.035,2.289-0.035,3.468,0C1377.525,1000.858,1375.964,1035.682,1375.964,1035.682z"/>
			</g>
			<g>
				<path style="fill:#252E3B;" d="M1332.782,1031.97c-0.313,0.937-0.659,1.839-1.041,2.706c0.728-5.029,1.595-9.747,2.498-13.978
					C1334.482,1024.374,1334.031,1028.189,1332.782,1031.97z"/>
			</g>
			<g>
				<path style="fill:#EEA886;" d="M1353.316,1092.147c0,0-0.243,2.324-0.59,5.861c0,0,0,0,0,0.034l-0.382,3.92
					c-0.034,0.59-0.103,1.18-0.138,1.804v0.034c0,0.035,0,0.035-0.035,0.069c0,0.104,0,0.208-0.035,0.313
					c-0.173,2.289-0.382,4.718-0.521,7.18c-0.52,6.382-0.832,12.764-0.589,16.232c0,0-0.139,0.139-0.417,0.382
					c-1.04,0.867-4.023,2.982-8.219,3.121c-2.498,0.069-5.446-0.555-8.671-2.602l-0.104-0.069c-0.312-0.173-0.589-0.347-0.867-0.555
					c0.555-1.63,1.041-3.261,1.492-4.891c1.248-4.751,2.081-9.538,2.011-14.741c-0.035-3.606-0.485-7.422-1.491-11.584
					c-0.139-0.659-0.313-1.317-0.52-2.012c-0.036-0.173-0.105-0.347-0.139-0.521c-0.208-0.693-0.417-1.422-0.659-2.15
					c-1.7-5.237-2.776-10.925-3.365-16.821C1339.893,1080.701,1353.316,1092.147,1353.316,1092.147z"/>
			</g>
			<g>
				<polygon style="fill:#EEA886;" points="1351.031,1127.591 1351.031,1141.46 1333.599,1128.434 				"/>
			</g>
			<g>
				<path style="fill:#D6C5BE;" d="M1351.026,1141.469l-9.434-6.104l-9.33-6.07c0.174-0.485,0.347-0.937,0.485-1.422
					c0.555-1.63,1.041-3.261,1.492-4.891l5.203,5.168l2.948,2.948l1.388,1.388L1351.026,1141.469z"/>
			</g>
			<g>
				<path style="fill:#E64646;" d="M1335.8,1190.616c0,0.381-0.035,0.798-0.069,1.214c-0.833,11.134-1.908,23.793-3.122,36.627
					c-0.104,0.971-0.173,1.977-0.312,2.982c-0.243,2.948-0.555,5.896-0.867,8.845v0.034c-0.764,7.631-1.561,15.192-2.393,22.406
					c-1.943-12.243-3.781-23.967-5.272-34.753c-0.382-2.741-0.728-5.376-1.075-7.979c0-0.138-0.035-0.276-0.035-0.381
					c-0.208-1.734-0.417-3.398-0.624-5.029c-0.798-6.833-1.388-13.146-1.734-18.868c-0.625-10.439-0.173-19.354,0.901-27.123
					c0.036-0.382,0.105-0.764,0.174-1.109c1.699-11.759,4.787-20.95,7.735-29.136c0.381-1.11,0.762-2.186,1.144-3.226
					c1.63,3.226,3.122,6.451,4.335,9.469c1.595,4.023,2.671,7.734,2.879,10.648C1337.777,1159.644,1337.118,1173.17,1335.8,1190.616
					z"/>
			</g>
			<g>
				<path style="fill:#E64646;" d="M1395.502,1156.844c0,0,3.691,13.059-10.686,41.922c0,0,0.229,36.939,0.634,48.479
					c0.405,11.54,3.138,55.171,3.138,55.171l-14.218,8.327c-2.864,1.677-6.41-0.649-6.01-3.944
					c4.026-33.209,17.125-159.181-11.169-193.041l11.354,3.348C1368.544,1117.105,1388.716,1133.611,1395.502,1156.844z"/>
			</g>
			<g>
				<path style="fill:#EEA886;" d="M1329.592,1068.354c-0.174-4.197-0.139-8.463,0.069-12.66
					C1332.089,1063.498,1331.43,1067.174,1329.592,1068.354z"/>
			</g>
			<g>
				<polygon style="fill:#FAE6DE;" points="1359.889,1131.087 1371.05,1134.171 1352.197,1103.779 				"/>
			</g>
			<g>
				<path style="fill:#FAE6DE;" d="M1343.778,1132.485l-1.734,2.255l-0.451,0.624l-7.006,9.226l-0.971,1.283l-4.508-7.526
					c0.381-1.11,0.762-2.186,1.144-3.226c0-0.035,0-0.035,0-0.035c0.728-1.977,1.388-3.884,2.012-5.792
					c0.174-0.485,0.347-0.937,0.485-1.422c0.555-1.63,1.041-3.261,1.492-4.891l5.203,5.168l2.948,2.948L1343.778,1132.485z"/>
			</g>
			<g>
				<path style="fill:#A77860;" d="M1352.726,1098.043l-0.382,3.92l-0.138,1.318c0,0-7.041,1.387-17.446-6.625
					c-0.139-0.659-0.313-1.317-0.52-2.012c-0.036-0.173-0.105-0.347-0.139-0.521c4.751,2.671,11.064,4.786,18.521,3.919H1352.726z"
					/>
			</g>
			<g>
				<g>
					<g>
						<path style="fill:#EEA886;" d="M1414.683,1261.743c0,0,7.079,4.562,11.153,2.011c3.464-2.168,9.507-2.469,11.367-2.564
							c2.488-0.129,9.979-3.367,10.172-0.23c0.193,3.136-12.092,5.934-14.551,7.035c-2.458,1.102,8.368,6.388,9.586,8.912
							c1.219,2.524-8.553,19.961-15.564,15.473c-7.01-4.488-11.538-13.91-12.927-14.455s-5.23-3.063-5.23-3.063L1414.683,1261.743z"
							/>
					</g>
				</g>
			</g>
			<g>
				<path style="fill:#EEA886;" d="M1426.916,1268.898l-9.539,13.388c0,0-0.034-0.034-0.138-0.068
					c-0.521-0.278-2.879-1.526-6.452-3.504c-2.601-1.421-5.896-3.225-9.607-5.341c-0.485-0.243-0.97-0.52-1.457-0.798
					c-4.058-2.255-8.602-4.856-13.354-7.596c-2.254-1.318-4.577-2.671-6.902-4.023c-1.908-1.145-3.85-2.289-5.792-3.468
					c-0.208-0.104-0.416-0.244-0.624-0.383c-1.353-0.832-2.74-1.664-4.093-2.496c-15.678-9.573-30.522-19.563-36.349-26.152
					c-0.694-0.729-1.249-1.422-1.665-2.081c-1.976-3.018-5.133-7.146-8.913-11.793c-0.798-6.833-1.388-13.146-1.734-18.868
					c-0.625-10.439-0.173-19.354,0.901-27.123c4.371,7.145,9.851,15.92,14.534,23.238c5.063,7.978,9.191,14.151,9.781,14.533
					c0.867,0.555,9.469,7.388,19.249,15.538c1.18,1.006,2.393,2.012,3.642,3.018c2.012,1.734,4.059,3.469,6.069,5.168
					c2.74,2.358,5.411,4.717,7.874,6.867c1.006,0.937,1.978,1.804,2.914,2.636l0.381,0.382c0.625,0.556,1.249,1.11,1.838,1.665
					c0.416,0.382,0.833,0.764,1.214,1.145c1.838,1.77,3.954,3.572,6.208,5.342c0.937,0.729,1.873,1.457,2.844,2.186
					c5.654,4.266,11.896,8.324,17.135,11.549c0.312,0.174,0.624,0.382,0.901,0.556c1.527,0.937,2.983,1.804,4.266,2.532
					C1424.176,1267.407,1426.916,1268.898,1426.916,1268.898z"/>
			</g>
			<g>
				<g>
					<g>
						<path style="fill:#EEA886;" d="M1441.021,1275.473c0,0,20.55,15.164,21.074,17.321c0.523,2.157-0.364,3.222-2.345,1.884
							c-1.981-1.338-20.279-14.077-20.279-14.077s21.306,22.036,22.122,23.709c0.477,0.979-1.119,3.144-2.246,2.525
							c-1.126-0.618-23.493-21.251-23.493-21.251s19.856,20.61,20.122,22.214c0.23,1.402-1.732,3.021-3.31,1.594
							c-1.577-1.428-21.088-19.515-21.088-19.515s13.508,15.909,12.933,17.396c-0.352,0.911-1.644,2.845-5.002-1.369
							c-3.357-4.215-12.322-13.325-12.322-13.325L1441.021,1275.473z"/>
					</g>
				</g>
			</g>
			<path style="fill:#E64646;" d="M1388.2,1191.523c0,0,0.678,46.113-2.136,68.353l-1.248-61.11L1388.2,1191.523z"/>
			<g>
				<path style="fill:#E64646;" d="M1421.436,1262.898l-0.901,1.353l-0.486,0.694l-8.046,11.965l-1.215,1.804l-1.734,2.567
					c0,0-2.671-1.492-7.041-3.954c-0.381-0.208-0.763-0.451-1.179-0.659c-3.85-2.22-8.775-5.064-14.291-8.324
					c-2.358-1.387-4.821-2.844-7.319-4.37c-1.768-1.04-3.537-2.116-5.306-3.19c-0.382-0.244-0.729-0.451-1.076-0.66
					c-1.041-0.658-2.081-1.283-3.121-1.907c-15.4-9.572-30.974-19.979-37.39-26.741c0,0,0,0-0.035-0.035
					c-0.069-0.104-0.208-0.242-0.451-0.52c-0.451-0.486-0.833-0.938-1.18-1.389c-0.173-0.242-0.381-0.484-0.589-0.762
					c-0.069-0.07-0.139-0.174-0.242-0.278c-1.838-2.428-4.335-5.479-7.18-8.879c-0.208-1.734-0.417-3.398-0.624-5.029
					c-0.798-6.833-1.388-13.146-1.734-18.868c-0.625-10.439-0.173-19.354,0.901-27.123c0.036-0.382,0.105-0.764,0.174-1.109
					c4.231,6.936,9.677,15.711,14.429,23.134c5.446,8.532,9.919,15.365,10.543,15.747c0.937,0.589,8.949,6.069,18.106,12.938
					c1.109,0.866,2.254,1.769,3.434,2.67c2.219,1.699,4.474,3.469,6.659,5.272c2.914,2.394,5.723,4.786,8.22,7.075
					c0.555,0.485,1.075,1.006,1.596,1.491c0.277,0.243,0.555,0.521,0.833,0.763c0.139,0.139,0.242,0.244,0.381,0.348
					c0.659,0.624,1.353,1.248,2.046,1.803c2.324,2.082,4.891,4.128,7.526,6.14c0.798,0.624,1.596,1.249,2.428,1.839
					C1409.262,1255.441,1421.436,1262.898,1421.436,1262.898z"/>
			</g>
			<g>
				<g>
					<path style="fill:#DB9C7C;" d="M1439.625,1375.235c0,0-2.639-10.263-5.938-11.794c-3.3-1.531-2.557,2.223-2.557,2.223
						s-0.671-3.725-3.742-3.517c-3.071,0.207-1.963,4.559-1.963,4.559s-1.279-2.69-4.193-1.38c-2.915,1.311-1.162,4.716-1.162,4.716
						s-3.939-2.81-4.887,1.018c-1.599,6.462,3.235,12.636,3.235,12.636s1.486,1.377,4.201-0.076c0,0,3.298,3.48,6.872-0.405
						c0,0,5.224,1.538,5.731-2.815C1435.222,1380.398,1441.079,1381.135,1439.625,1375.235z"/>
				</g>
			</g>
			<path style="fill:#9C2F2F;" d="M1332.332,1231.475c0,0-0.625,7.457-0.902,8.81l-7.665-12.313
				c-0.382-2.741-0.728-5.376-1.075-7.979c2.879,3.399,5.411,6.417,6.694,7.943c0.173,0.208,0.313,0.382,0.451,0.555
				c0.104,0.104,0.173,0.208,0.242,0.278c0.937,1.109,1.457,1.769,1.769,2.15c0.243,0.277,0.382,0.416,0.451,0.52
				C1332.332,1231.475,1332.332,1231.475,1332.332,1231.475z"/>
			<path style="fill:#6BB0FF;" d="M1329.661,1055.693c-0.035-0.034-0.035-0.068-0.069-0.138c0,0,0.035-0.035,0.069-0.035V1055.693z"
				/>
		</g>
	</g>
	<g>
		<g>
			<g>
				<g>
					<path style="fill:#1D2033;" d="M1074.512,1667.424c0,0,13.315,8.854,19.378,12.203c6.063,3.35,30.2,5.495,32.469,7.892
						c2.269,2.397,1.011,9.579-3.036,10.104c-4.047,0.526-33.578,1.629-43.264-1.183s-28.229,0.077-32.218-1.518
						c-3.989-1.596-0.21-23.352,1.62-28.184C1051.291,1661.908,1074.512,1667.424,1074.512,1667.424z"/>
				</g>
			</g>
		</g>
		<polygon style="fill:#50558A;" points="1051.382,1660.909 1049.461,1666.739 1074.512,1667.424 1073.697,1659.419 		"/>
		<g>
			<g>
				<g>
					<path style="fill:#1D2033;" d="M930.375,1655.28c0,0,10.207,12.308,15.052,17.259c4.844,4.951,27.345,13.945,28.829,16.893
						c1.484,2.948-1.785,9.465-5.812,8.806c-4.027-0.66-32.629-8.094-41.097-13.571c-8.469-5.478-27.06-8.042-30.422-10.717
						c-3.361-2.674,6.512-22.426,9.654-26.527C909.72,1643.321,930.375,1655.28,930.375,1655.28z"/>
				</g>
			</g>
		</g>
		<polygon style="fill:#50558A;" points="910.094,1642.391 906.578,1647.422 930.375,1655.28 931.896,1647.379 		"/>
		<g>
			<path style="fill:#EEA886;" d="M1119.267,1157.053c0,0,22.47-11.169,24.515-10.597c2.045,0.571,2.504,1.886,0.442,3.022
				c-2.063,1.136-21.435,11.45-21.435,11.45s28.546-8.526,30.329-8.451c1.044,0.044,2.077,2.528,1.023,3.243
				s-28.943,10.875-28.943,10.875s26.666-7.91,28.126-7.373c1.277,0.47,1.682,3.021-0.262,3.75
				c-1.944,0.729-26.346,9.55-26.346,9.55s19.711-4.469,20.673-3.231c0.588,0.758,1.577,2.857-3.539,3.842
				c-5.116,0.985-16.992,4.65-16.992,4.65L1119.267,1157.053z"/>
		</g>
		<g>
			<g>
				<path style="fill:#EEA886;" d="M1095.215,1174.127c0,0,7.189-4.167,7.022-9.069c-0.142-4.168,2.507-9.755,3.32-11.476
					c1.087-2.303,1.987-10.614,4.688-9.271c2.701,1.345-0.866,13.759-1.129,16.506c-0.264,2.746,9.326-4.445,12.01-4.321
					c2.684,0.123,12.496,17.356,5.4,21.498c-7.095,4.142-17.103,3.661-18.222,4.648s-5.057,3.227-5.057,3.227L1095.215,1174.127z"/>
			</g>
		</g>
		<g>
			<path style="fill:#D6D6D6;" d="M1019.302,1228.672c5.409,11.663,8.169,13.105,14.442,14.648
				c13.57,3.339,76.867-54.294,76.867-54.294l-13.815-18.125c0,0-15.467,12.041-28.648,20.913
				c-8.157,5.49-24.264,18.896-25.713,17.986c-1.449-0.908-23.003-31.183-25-35.529c-1.998-4.355-10.524-37.711-15.582-41.441
				C1001.852,1132.83,984.334,1153.272,1019.302,1228.672z"/>
		</g>
		<g>
			<path style="fill:#292C47;" d="M1004.445,1382.177c0,0-4.772,35.218-9.644,69.041v0.005c-0.929,6.437-1.857,12.817-2.756,18.896
				v0.005c-3.153,21.254-5.949,38.809-7.022,41.917c-3.054,8.85-45.79,141.275-45.79,141.275s-33.242-6.123-34.354-9.743
				c0,0,36.191-138.668,35.779-143.684c-0.417-5.016,4.504-146.459,4.504-146.459S1002.767,1374.043,1004.445,1382.177z"/>
		</g>
		<g>
			<path style="fill:#292C47;" d="M1031.531,1338.316c0,0,30.005,143.835,32.513,154.423
				c2.507,10.587,16.876,172.017,16.876,172.017s-13.755,1.059-37.493,0c0,0-25.933-163.315-28.61-168.391
				c-10.386-19.689-50.381-118.722-55.396-132.373c-5.015-13.652-13.739-26.058-13.739-26.058S980.349,1311.217,1031.531,1338.316z"
				/>
		</g>
		<g>
			<path style="fill:#D6D6D6;" d="M965.555,1108.519c0,0,31.254,23.026,39.927,32.22c8.673,9.194,27.017,46.199,25.531,57.889
				c-5.7,44.822-3.831,84.375-1.945,114.825c1.449,23.394,3.683,24.759,2.145,25.058c-5.958,1.156-74.771,15.457-86.193,19.079
				c0,0-2.793-70.131,0.829-80.996C949.469,1265.727,933.236,1152.539,965.555,1108.519z"/>
		</g>
		<g>
			<g>
				<path style="fill:#EEA886;" d="M965.556,1108.518c0,0,57.245,60.352,53.666,53.612c-12.76-24.03-21.441-27.968-21.346-32.495
					c0.073-3.462,1.245-13.575,1.416-16.959c0.325-6.434,0.71-11.666,0.71-11.666s-28.576-38.67-27.111-25.35
					C974.354,1088.979,965.556,1108.518,965.556,1108.518z"/>
			</g>
		</g>
		<g>
			<g>
				<path style="fill:#EEA886;" d="M1017.765,1035.362c0,0,8.044,17.987,8.228,22.228c0.184,4.239-0.833,7.514-0.088,12.389
					c0.771,5.041,5.198,15.596,4.729,18.543c-0.567,3.562-8.076,1.847-9.002,7.711c-0.926,5.865-6.165,16.949-8.867,17.22
					c-6.941,0.693-33.761-9.692-35.552-15.233c-1.792-5.539-11.989-36.426-15.094-42.279c-3.107-5.854,46.228-39.107,50.938-29.842
					C1017.765,1035.362,1017.765,1035.362,1017.765,1035.362z"/>
			</g>
		</g>
		<path style="fill:#16202E;" d="M950.14,1050.008c-3.799-15.317,13.847-17.522,13.847-17.522s11.274-13.603,38.846-12.5
			c27.572,1.104,24.005,37.126,24.005,37.126s-19.107-2.515-27.357-0.271c0,0-0.738,15.37,0.225,19.158l-10.405-0.74
			c0,0,0.922-13.646-4.079-14.202c-5-0.556-6.153,28.962-15.327,35.625c0,0-0.128-2.083-1.329-4.104l0,0l0,0
			c-1.911-3.217-4.887-8.601-7.49-14.913C956.87,1068.822,952.085,1057.854,950.14,1050.008z"/>
		<g>
			<g>
				<path style="fill:#EEA886;" d="M992.198,1064.229c0,0-4.043-10.33-13.061-3.422c-6.558,5.023,0.587,22.459,7.052,22.26
					C992.653,1082.865,995.109,1073.268,992.198,1064.229z"/>
			</g>
		</g>
		<path style="fill:#C48A6F;" d="M975.626,1093.387c0,0,1.456,5.496,2.967,6.759c1.511,1.264,8.774,6.874,20.983,10.472
			l-1.061,10.848C998.515,1121.465,974.754,1112.779,975.626,1093.387z"/>
		<path style="fill:#3D4169;" d="M1032.436,1342.652c0,0-0.586-9.676-1.833-12.418c0,0-50.806,12.895-85.906,18.112
			c0,0-0.47,5.709,0.216,12.291C944.913,1360.638,1021.941,1346.639,1032.436,1342.652z"/>
		<path style="fill:#D6D6D6;" d="M965.556,1109.707l36.065,26.339c0,0,12.569,11.991,21.747,33.339l-63.948-50.587L965.556,1109.707
			z"/>
		<polygon style="fill:#E3E3E3;" points="967.524,1103.651 999.403,1124.636 1001.852,1137.234 964.229,1110.406 		"/>
		<path style="fill:#D44040;" d="M1001.852,1137.234c0,0,25.684,47.737,26.429,93.175c0.693,42.287,2.387,71.509,2.387,71.509
			l4.069,11.422l3.476-13.656c0,0-0.662-49.245-1.49-71.592s-11.349-64.279-32.775-93.214L1001.852,1137.234z"/>
		<path style="fill:#D44040;" d="M1001.852,1137.234c0,0,1.289,1.093,3.027,1.244c1.738,0.151,4.035-2.752-5.476-13.843
			L1001.852,1137.234z"/>
		<path style="fill:#1C1D30;" d="M994.801,1451.218v0.005c-0.929,6.437-1.857,12.817-2.756,18.896
			c-5.04-11.6-21.423-77.304-21.71-78.461L994.801,1451.218z"/>
		<g>
			<g>
				<g>
					<path style="fill:#EEA886;" d="M1099.79,1276.906c0,0,7.079,4.561,11.153,2.011c3.464-2.169,9.507-2.469,11.367-2.565
						c2.488-0.128,9.979-3.367,10.172-0.23c0.192,3.137-12.092,5.935-14.551,7.035c-2.458,1.102,8.368,6.389,9.586,8.912
						c1.218,2.524-8.554,19.961-15.564,15.473s-11.538-13.91-12.927-14.455s-5.23-3.063-5.23-3.063L1099.79,1276.906z"/>
				</g>
			</g>
		</g>
		<g>
			<g>
				<g>
					<path style="fill:#EEA886;" d="M1126.129,1290.635c0,0,20.55,15.165,21.073,17.322c0.524,2.157-0.364,3.221-2.344,1.884
						c-1.98-1.338-20.279-14.077-20.279-14.077s21.307,22.035,22.122,23.709c0.477,0.979-1.119,3.143-2.245,2.524
						s-23.494-21.251-23.494-21.251s19.857,20.611,20.121,22.214c0.232,1.403-1.731,3.021-3.309,1.595
						c-1.577-1.428-21.088-19.516-21.088-19.516s13.509,15.91,12.934,17.397c-0.352,0.91-1.644,2.845-5.002-1.37
						s-12.323-13.324-12.323-13.324L1126.129,1290.635z"/>
				</g>
			</g>
		</g>
		<g>
			<path style="fill:#D6D6D6;" d="M970.885,1131.517c0,0,5.101,1.114,13.604,10.225c8.503,9.11,12.755,24.093,14.982,28.952
				c2.227,4.858,30.369,49.805,31.989,50.817c1.62,1.013,25.054,17.104,38.012,29.455s37.075,27.104,37.075,27.104l-12.375,18.373
				c0,0-67.669-37.479-78.402-51.751c-11.464-15.246-52.337-60.008-52.337-60.008S937.431,1143.743,970.885,1131.517z"/>
		</g>
	</g>
	<g>
		<g>
			<path style="opacity:0.3;fill:#869AC2;" d="M1361.551,1744.127c0,0,426.725-430.411-2.358-913.355c0,0,0.005,0.004,0.009-0.001
				c72.406,12.337,142.925,42.108,205.104,90.146c202.565,156.492,239.92,447.571,83.424,650.142
				C1574.289,1666.122,1471.21,1724.799,1361.551,1744.127z"/>
			
				<linearGradient id="SVGID_00000072272080670959272710000015167454946563641472_" gradientUnits="userSpaceOnUse" x1="353.3267" y1="1805.6855" x2="878.4067" y2="1805.6855">
				<stop  offset="0" style="stop-color:#4BABF9"/>
				<stop  offset="1" style="stop-color:#6487D4"/>
			</linearGradient>
			<polygon style="fill:url(#SVGID_00000072272080670959272710000015167454946563641472_);" points="878.407,1723.466 
				578.206,1999.985 353.327,1999.985 775.206,1611.386 787.646,1624.905 865.967,1709.985 			"/>
			
				<rect x="820.475" y="1593.395" transform="matrix(-0.7355 0.6775 -0.6775 -0.7355 2584.2043 2293.6199)" style="fill:#2D3038;" width="47.872" height="115.651"/>
			
				<ellipse transform="matrix(0.7071 -0.7071 0.7071 0.7071 -535.3613 1282.9248)" style="opacity:0.1;fill:#B8B8B8;" cx="1280.947" cy="1287.701" rx="465.767" ry="465.767"/>
			<path style="fill:#3F444F;" d="M1280.954,733.147c-306.273,0-554.555,248.283-554.555,554.555
				c0,306.271,248.282,554.553,554.555,554.553c306.271,0,554.554-248.282,554.554-554.553
				C1835.508,981.43,1587.225,733.147,1280.954,733.147z M1280.953,1749.568c-255.082,0-461.867-206.784-461.867-461.866
				c0-255.083,206.785-461.868,461.867-461.868c255.083,0,461.868,206.785,461.868,461.868
				C1742.82,1542.784,1536.035,1749.568,1280.953,1749.568z"/>
		</g>
	</g>
	<g>
		<path style="fill:#16202E;" d="M535.682,1086.593c0,0,24.704,52.087,7.699,55.202c-23.35,4.277-32.797-38.865-32.797-38.865
			L535.682,1086.593z"/>
		<g>
			<path style="fill:#1D3B54;" d="M626.976,1672.406c0,0,15.702,21.139,13.548,24.488c-2.154,3.352-18.666,3.83-28.717,0
				c-10.051-3.828-10.29-28.602-14.837-39.246c-1.903-4.456,2.17-17.609,7.897-18.563c5.727-0.954,11.958,1.848,11.958,1.848
				S610.883,1655.927,626.976,1672.406z"/>
		</g>
		<g>
			<g>
				<path style="fill:#EEA886;" d="M616.93,1640.763c0,0,3.304,9.001,4.511,17.596c1.001,7.129,11.186,22.264,10.707,24.178
					c-0.479,1.915-13.401,3.648-18.666-1.286c-5.265-4.936-8.653-19.289-9.811-27.874c-1.08-7.997-2.442-11.946-2.442-11.946
					S611.904,1635.497,616.93,1640.763z"/>
			</g>
		</g>
		<g>
			<polygon style="fill:#1D3B54;" points="596.549,1655.789 596.549,1677.92 599.421,1677.92 599.421,1660.814 			"/>
		</g>
		<g>
			<path style="fill:#1D3B54;" d="M490.305,1672.757c0,0,15.136,20.788,12.982,24.138c-2.154,3.352-18.666,3.83-28.717,0
				c-10.051-3.828-10.29-28.602-14.837-39.246c-1.903-4.456,2.17-17.609,7.898-18.563c5.727-0.954,12.444,2.051,12.444,2.051
				S474.212,1656.276,490.305,1672.757z"/>
		</g>
		<g>
			<g>
				<path style="fill:#EEA886;" d="M480.074,1641.136c0,0,1.196,9.812,3.111,16.752c1.915,6.939,12.204,22.734,11.726,24.648
					c-0.479,1.915-13.401,3.648-18.666-1.286c-5.265-4.936-9.333-19.225-9.811-27.874c-0.478-8.65,1.196-14.291,1.196-14.291
					S475.048,1635.871,480.074,1641.136z"/>
			</g>
		</g>
		<g>
			<polygon style="fill:#1D3B54;" points="459.312,1655.789 459.312,1677.92 462.184,1677.92 462.184,1660.814 			"/>
		</g>
		<g>
			<g>
				<g>
					<path style="fill:#EEA886;" d="M593.716,1351.465c0,0,2.955,2.824,3.975,5.46c0.808,2.087,3.508,4.849,4.787,6.427
						c1.278,1.576,6.046,8.957,6.727,11.01c0.278,0.84-0.09,6.641,0.664,8.286c0.755,1.647,2.698,4.803,1.228,5.395
						s-4.001-1.772-4.001-1.772s0.594,1.54-0.534,2.452c-2.192,1.771-3.822,1.062-3.822,1.062s-0.438,1.953-1.541,2.466
						c-2.432,1.129-3.988,0.396-3.988,0.396s-0.859,1.242-2.65,1.633c-2.291,0.5-3.809-1.242-3.809-1.242s-2.72,1.273-3.94,0.124
						c-1.221-1.147-1.485-2.619-2.179-3.758c-0.695-1.138-3.571-12.229-2.089-21.062c1.482-8.833-5.418-15.457-5.418-15.457
						L593.716,1351.465z"/>
				</g>
			</g>
		</g>
		<g>
			<path style="fill:#FFFFFF;" d="M618.098,1419.383h-38.141c-3.873,0-7.024-3.152-7.024-7.025v-24.051
				c0-3.873,3.151-7.025,7.024-7.025h38.141c3.874,0,7.024,3.152,7.024,7.025v24.051
				C625.122,1416.23,621.971,1419.383,618.098,1419.383z M579.957,1385.995c-1.274,0-2.31,1.037-2.31,2.312v24.051
				c0,1.274,1.037,2.311,2.31,2.311h38.141c1.274,0,2.311-1.036,2.311-2.311v-24.051c0-1.274-1.036-2.312-2.311-2.312H579.957z"/>
		</g>
		<g>
			<rect x="527.479" y="1409.06" style="fill:#FFFFFF;" width="143.096" height="102.522"/>
		</g>
		<g>
			<path style="fill:#EEA886;" d="M538.248,1134.717c0,0-7.33,0.104-10.457,22.021c-3.126,21.916,2.798,31.077,3.504,40.197
				c0.706,9.12,11.405,68.024,11.696,70.629c0.29,2.604,1.726,33.951,5.897,42.271c4.171,8.318,34.838,55.469,35.249,57.822
				c0.411,2.354,14.891-8.213,14.891-8.213s-24.093-50.432-25.49-56.187c-1.397-5.755-11.094-35.137-9.561-44.106
				c1.533-8.97-4.294-58.448-3.73-63.955C560.81,1189.689,552.293,1138.062,538.248,1134.717z"/>
		</g>
		<g>
			<path style="fill:#285173;" d="M538.248,1134.717c0,0-7.33,0.104-10.457,22.021c-3.126,21.916-0.301,29.808,1.59,39.308
				c1.786,8.973,7.866,63.855,8.156,66.46s7.567,35.69,11.351,47.329c2.877,8.851,29.684,55.348,30.633,57.542
				c0.958,2.215,21.259-10.827,21.259-10.827s-26.737-52.164-28.134-57.918c-1.397-5.755-5.924-25.675-6.07-34.773
				c-0.171-10.688-6.895-63.155-6.331-68.662C560.81,1189.689,558.066,1138.72,538.248,1134.717z"/>
		</g>
		<g>
			<g>
				<path style="fill:#DB9C7C;" d="M607.206,1385.139c0,0-2.56-9.955-5.761-11.441c-3.201-1.486-2.48,2.156-2.48,2.156
					s-0.651-3.614-3.63-3.412c-2.978,0.201-1.904,4.423-1.904,4.423s-1.241-2.61-4.068-1.339c-2.827,1.271-1.127,4.575-1.127,4.575
					s-3.822-2.726-4.741,0.987c-1.551,6.269,3.141,12.15,3.141,12.15s1.458,1.393,4.091-0.017c0,0,3.092,3.448,6.558-0.321
					c0,0,5.053,1.332,5.545-2.891C602.83,1390.01,608.764,1390.854,607.206,1385.139z"/>
			</g>
		</g>
		<g>
			<g>
				<path style="fill:#1F3F59;" d="M555.71,1296.996c0,0,13.473,62.682,16.567,78.464c3.095,15.781,11.759,92.214,12.688,105.211
					c0.928,12.997,14.06,61.967,13.44,66.608c-0.619,4.642,20.206,96.748,20.206,96.748s-21.435,5.83-25.043,1.902
					c-3.064-3.336-33.859-87.562-33.859-110.769c0-32.08-24.198-72.925-27.259-80.102c-28.435-66.675-22.361-88.093-26.074-92.425
					c-3.713-4.333-4.036,2.676-6.202,12.269c-2.167,9.593-6.804,92.523-9.589,103.046c-2.785,10.521-0.623,46.106-2.17,64.055
					c-1.547,17.948-3.328,98.362-3.328,98.362s-15.526,3.569-22.902,0.13c-2.128-0.992-7.495-89.581-7.805-110.933
					c-0.31-21.353-0.64-50.799-1.238-60.032c-5.733-88.48-19.823-101.117,2.369-163.737
					C497.062,1188.547,555.71,1296.996,555.71,1296.996z"/>
			</g>
		</g>
		<g>
			<path style="fill:#EDDAD3;" d="M516.74,1126.819c0,0,14.142,6.678,19.052,7.66c4.91,0.981,23.962,25.73,27.301,34.765
				c3.339,9.036,0,22.588-6.875,38.498c-6.874,15.909-0.392,21.213-3.535,37.122c-3.143,15.909-5.893,49.595-5.303,58.434
				c0.589,8.839-79.444,10.507-97.711-5.599c0,0,18.359-27.497,20.716-31.426c2.357-3.928,0.393-25.338-1.768-30.837
				c-2.161-5.499-16.54-52.269-16.54-52.269s-11.764-35.918-1.137-44.171c9.231-7.17,34.391-9.726,38.908-11.297
				C494.367,1126.129,507.509,1125.444,516.74,1126.819z"/>
		</g>
		<g>
			<path style="fill:#D6C5BE;" d="M521.258,1158.344l8.593-10.063l-7.461-26.492
				C522.389,1121.789,519.883,1136.542,521.258,1158.344z"/>
		</g>
		<g>
			<polygon style="fill:#EEA886;" points="521.258,1144.89 521.258,1158.344 504.346,1145.707 			"/>
		</g>
		<g>
			<polygon style="fill:#D6C5BE;" points="521.258,1158.344 514.236,1149.652 491.524,1125.884 482.932,1133.448 			"/>
		</g>
		<g>
			<path style="fill:#285173;" d="M487.301,1128.335c0,0,19.848,30.122,20.796,43.38c0.949,13.258-7.377,112.433-14.043,144.312
				c-6.666,31.88-54.837-3.595-54.837-3.595s32.37-52.395,19.945-94.346c-12.425-41.951-16.941-58.725-16.941-58.725
				s4.276-23.362,19.425-26.649C474.929,1129.83,487.301,1128.335,487.301,1128.335z"/>
		</g>
		<g>
			<path style="fill:#285173;" d="M564.4,1173.269c0,0,3.581,12.669-10.367,40.67c0,0,0.222,35.837,0.615,47.032
				c0.393,11.195,8.309,51.452,8.309,51.452l-19.057,10.149c-2.779,1.627-6.219-0.629-5.831-3.826
				c3.906-32.218,16.613-154.428-10.836-187.277l11.015,3.248C538.248,1134.717,557.817,1150.73,564.4,1173.269z"/>
		</g>
		<g>
			<polygon style="fill:#FAE6DE;" points="529.851,1148.281 540.678,1151.273 522.389,1121.789 			"/>
		</g>
		<path style="fill:#1D3B54;" d="M557.316,1206.913c0,0,0.658,44.735-2.072,66.312l-1.211-59.286L557.316,1206.913z"/>
		<g>
			<path style="fill:#EEA886;" d="M523.913,1111.842c0,0-2.771,25.76-2.655,35.564c0,0-9.404,9.854-31.065-18.324
				c0,0,7.049-13.186,1.743-31.152C486.63,1079.963,523.913,1111.842,523.913,1111.842z"/>
		</g>
		<path style="fill:#EEA987;" d="M480.393,1063.053c0,0-3.25-3.904-4.462,0.027c-1.212,3.931,2.758,15.615,3.195,17.307
			c0,0,1.97,6.557,2.757,5.721C482.669,1085.27,480.393,1063.053,480.393,1063.053z"/>
		<path style="fill:#EEA987;" d="M537.17,1063.538c0,0,3.25-3.903,4.462,0.027s-2.758,15.615-3.195,17.308
			c0,0-1.97,6.557-2.756,5.72C534.895,1085.756,537.17,1063.538,537.17,1063.538z"/>
		<path style="fill:#EEA987;" d="M513.882,1025.691c0,0,29.833,4.594,25.465,51.584c-4.368,46.99-30.696,43.261-32.455,43.221
			c-1.759-0.039-26.414,0.978-28.546-56.361C478.346,1064.135,477.352,1021.732,513.882,1025.691z"/>
		<path style="fill:#16202E;" d="M484.068,1061.326c0,0,33.109,9.846,48.96,6.697c0,0,1.012,5.848,3.288,6.207
			c2.276,0.359,3.44-11.178,3.44-11.178s0.776-38.213-33.792-38.572c-34.568-0.36-27.546,41.39-27.546,41.39l0.471,7.136
			C478.889,1073.006,483.84,1074.961,484.068,1061.326z"/>
		<path style="fill:#A77860;" d="M495.161,1116.012c0,0,10.446,9.896,26.514,0.814c0,0-4.747,7.93-13.753,7.729
			C498.915,1124.355,495.161,1116.012,495.161,1116.012z"/>
		<g>
			<polygon style="fill:#FAE6DE;" points="514.236,1149.652 504.346,1162.615 484.141,1128.753 492.043,1124.295 			"/>
		</g>
		<path style="fill:#EEA886;" d="M433.292,1348.256c0,0-1.407,6.333,1.785,11.328c3.191,4.996,3.305,17.355,2.618,20.767
			c-0.686,3.409-4.213,29.567-5.871,31.363c-1.657,1.795-4.041-2.547-3.582-5.062c0.459-2.516,2.559-24.516,2.559-24.516
			s-3.97,26.036-5.765,27.393c-1.795,1.357-4.886,0.531-5.344-3.278c0,0-5.576,1.324-4.914-5.14l1.278-12.893
			c0,0-1.823,6.53-3.725,1.559c-1.012-2.644,2.118-16.968,1.852-20.02s2.33-13.547,2.33-13.547L433.292,1348.256z"/>
		<path style="fill:#285173;" d="M463.71,1133.926c-5.597-1.811-21.861,2.361-24.638,19.205
			c-2.776,16.844-3.887,35.538-6.478,44.607c-2.591,9.069-10.357,51.266-10.892,57.719c-0.92,11.097-2.872,22.546-3.755,40.369
			c-0.882,17.797-7.591,61.348-7.591,61.348l25.128,1.878c0,0,7.122-54.841,8.19-69.281c0.867-11.723,2.596-22.265,9.886-54.403
			c0,0,12.166-32.631,14.757-39.665C470.908,1188.669,488.882,1142.07,463.71,1133.926z"/>
	</g>
</g>
</svg>
